<svg width="111" height="111" viewBox="0 0 111 111" fill="none" xmlns="http://www.w3.org/2000/svg">
<rect width="110.234" height="110.234" rx="19.1071" fill="#F1F0EC"/>
<mask id="path-2-inside-1" fill="white">
<path fill-rule="evenodd" clip-rule="evenodd" d="M61.2774 31.3895C55.4644 28.6786 48.8433 28.258 42.7339 30.2114L44.3815 35.3642C49.1947 33.8252 54.4112 34.1566 58.991 36.2924C63.5708 38.4281 67.1775 42.2113 69.0922 46.8879C71.0069 51.5644 71.0889 56.7907 69.3219 61.525C67.5549 66.2593 64.0687 70.1539 59.5581 72.4323C55.0476 74.7107 49.8441 75.2056 44.985 73.8184C40.1258 72.4312 35.9678 69.2637 33.34 64.9474C30.7121 60.6312 29.8074 55.4831 30.8061 50.5294C31.8048 45.5758 34.6336 41.1805 38.7287 38.2196C38.7287 38.2196 39.9475 36.4914 38.7287 34.85C37.5099 33.2086 35.5589 33.8357 35.5589 33.8357C30.3612 37.5938 26.7706 43.1727 25.503 49.4603C24.2353 55.7478 25.3837 62.2821 28.7192 67.7607C30.4502 70.6039 32.7042 73.0543 35.3342 75H20.5C19.1193 75 18 76.1193 18 77.5C18 78.8807 19.1193 80 20.5 80H50.4596C50.4862 80.0001 50.5127 80.0001 50.5393 80H76.5C77.8807 80 79 78.8807 79 77.5C79 76.1193 77.8807 75 76.5 75H65.6659C69.6092 72.0827 72.6537 68.0692 74.3902 63.4167C76.6331 57.4075 76.5289 50.7739 74.0987 44.8381C71.6684 38.9023 67.0904 34.1003 61.2774 31.3895Z"/>
</mask>
<path fill-rule="evenodd" clip-rule="evenodd" d="M61.2774 31.3895C55.4644 28.6786 48.8433 28.258 42.7339 30.2114L44.3815 35.3642C49.1947 33.8252 54.4112 34.1566 58.991 36.2924C63.5708 38.4281 67.1775 42.2113 69.0922 46.8879C71.0069 51.5644 71.0889 56.7907 69.3219 61.525C67.5549 66.2593 64.0687 70.1539 59.5581 72.4323C55.0476 74.7107 49.8441 75.2056 44.985 73.8184C40.1258 72.4312 35.9678 69.2637 33.34 64.9474C30.7121 60.6312 29.8074 55.4831 30.8061 50.5294C31.8048 45.5758 34.6336 41.1805 38.7287 38.2196C38.7287 38.2196 39.9475 36.4914 38.7287 34.85C37.5099 33.2086 35.5589 33.8357 35.5589 33.8357C30.3612 37.5938 26.7706 43.1727 25.503 49.4603C24.2353 55.7478 25.3837 62.2821 28.7192 67.7607C30.4502 70.6039 32.7042 73.0543 35.3342 75H20.5C19.1193 75 18 76.1193 18 77.5C18 78.8807 19.1193 80 20.5 80H50.4596C50.4862 80.0001 50.5127 80.0001 50.5393 80H76.5C77.8807 80 79 78.8807 79 77.5C79 76.1193 77.8807 75 76.5 75H65.6659C69.6092 72.0827 72.6537 68.0692 74.3902 63.4167C76.6331 57.4075 76.5289 50.7739 74.0987 44.8381C71.6684 38.9023 67.0904 34.1003 61.2774 31.3895Z" fill="#2C3442"/>
<path d="M42.7339 30.2114L41.2111 25.4489L36.4487 26.9717L37.9714 31.7341L42.7339 30.2114ZM61.2774 31.3895L63.3906 26.858L61.2774 31.3895ZM44.3815 35.3642L39.619 36.887L41.1418 41.6495L45.9042 40.1267L44.3815 35.3642ZM58.991 36.2924L56.8778 40.8238L58.991 36.2924ZM69.0922 46.8879L64.465 48.7824L69.0922 46.8879ZM30.8061 50.5294L25.9047 49.5413L25.9047 49.5413L30.8061 50.5294ZM38.7287 38.2196L41.6583 42.2714L42.3341 41.7828L42.8148 41.1013L38.7287 38.2196ZM38.7287 34.85L34.7144 37.8309L38.7287 34.85ZM35.5589 33.8357L34.0289 29.0755L33.2729 29.3185L32.6293 29.7839L35.5589 33.8357ZM25.503 49.4603L30.4044 50.4484L25.503 49.4603ZM28.7192 67.7607L24.4484 70.3608L24.4484 70.3608L28.7192 67.7607ZM35.3342 75V80H50.4999L38.3079 70.9804L35.3342 75ZM50.4596 80L50.4675 75H50.4596V80ZM50.5393 80V75L50.5314 75L50.5393 80ZM65.6659 75L62.6922 70.9804L50.5003 80H65.6659V75ZM74.3902 63.4167L79.0746 65.1651L74.3902 63.4167ZM44.2567 34.9739C49.1681 33.4035 54.491 33.7416 59.1642 35.9209L63.3906 26.858C56.4378 23.6156 48.5184 23.1125 41.2111 25.4489L44.2567 34.9739ZM49.1439 33.8414L47.4964 28.6886L37.9714 31.7341L39.619 36.887L49.1439 33.8414ZM61.1042 31.7609C55.3846 29.0936 48.8699 28.6797 42.8587 30.6017L45.9042 40.1267C49.5196 38.9707 53.4378 39.2196 56.8778 40.8238L61.1042 31.7609ZM73.7194 44.9934C71.3282 39.1529 66.8238 34.4282 61.1042 31.7609L56.8778 40.8238C60.3178 42.4281 63.0268 45.2697 64.465 48.7824L73.7194 44.9934ZM74.0063 63.2734C76.2131 57.3608 76.1106 50.8338 73.7194 44.9934L64.465 48.7824C65.9032 52.295 65.9648 56.2206 64.6376 59.7766L74.0063 63.2734ZM61.8125 76.8952C67.4456 74.0497 71.7995 69.186 74.0063 63.2734L64.6376 59.7766C63.3103 63.3327 60.6917 66.258 57.3038 67.9693L61.8125 76.8952ZM43.6124 78.6263C49.6809 80.3588 56.1794 79.7407 61.8125 76.8952L57.3038 67.9693C53.9158 69.6807 50.0074 70.0524 46.3575 69.0105L43.6124 78.6263ZM29.0692 67.5476C32.3511 72.9381 37.5439 76.8939 43.6124 78.6263L46.3575 69.0105C42.7077 67.9685 39.5846 65.5894 37.6107 62.3473L29.0692 67.5476ZM25.9047 49.5413C24.6574 55.7277 25.7873 62.1571 29.0692 67.5476L37.6107 62.3473C35.6369 59.1053 34.9573 55.2384 35.7075 51.5176L25.9047 49.5413ZM35.7991 34.1678C30.6849 37.8655 27.152 43.3548 25.9047 49.5413L35.7075 51.5176C36.4576 47.7968 38.5824 44.4954 41.6583 42.2714L35.7991 34.1678ZM34.7144 37.8309C34.205 37.1448 34.2357 36.3518 34.3228 35.9877C34.3593 35.8351 34.4065 35.7299 34.4412 35.6616C34.4613 35.6219 34.4856 35.5784 34.5163 35.5282C34.532 35.5027 34.5499 35.4745 34.5706 35.4432C34.5809 35.4276 34.5921 35.411 34.604 35.3935C34.61 35.3847 34.6162 35.3757 34.6226 35.3665C34.6258 35.3619 34.6291 35.3572 34.6324 35.3524C34.6341 35.35 34.6358 35.3476 34.6375 35.3452C34.6383 35.344 34.6396 35.3422 34.64 35.3416C34.6413 35.3398 34.6426 35.338 38.7287 38.2196C42.8148 41.1013 42.8161 41.0994 42.8174 41.0976C42.8178 41.097 42.8191 41.0951 42.82 41.0938C42.8218 41.0913 42.8236 41.0888 42.8254 41.0862C42.829 41.081 42.8327 41.0757 42.8365 41.0702C42.8441 41.0593 42.852 41.0478 42.8602 41.0357C42.8767 41.0116 42.8946 40.9851 42.9136 40.9564C42.9515 40.8989 42.9944 40.832 43.041 40.7561C43.1336 40.605 43.2436 40.4136 43.359 40.1863C43.5841 39.7427 43.8599 39.1027 44.0487 38.313C44.4404 36.6744 44.4712 34.1965 42.743 31.8691L34.7144 37.8309ZM35.5589 33.8357C37.089 38.5958 37.0868 38.5965 37.0846 38.5972C37.0839 38.5975 37.0817 38.5982 37.0802 38.5986C37.0773 38.5996 37.0745 38.6005 37.0716 38.6014C37.0659 38.6032 37.0603 38.605 37.0547 38.6067C37.0436 38.6102 37.0328 38.6135 37.0223 38.6167C37.0012 38.6231 36.9812 38.6291 36.9622 38.6345C36.9243 38.6454 36.8899 38.6546 36.8586 38.6625C36.7968 38.6779 36.7425 38.6892 36.6925 38.6973C36.604 38.7119 36.4769 38.7257 36.3097 38.7131C35.9035 38.6824 35.1826 38.4613 34.7144 37.8309L42.743 31.8691C41.056 29.5973 38.7502 28.8691 37.0638 28.7416C36.2565 28.6805 35.5655 28.7485 35.0731 28.8293C34.8212 28.8707 34.6049 28.9181 34.4317 28.9614C34.3447 28.9832 34.2672 29.0043 34.2001 29.0236C34.1665 29.0332 34.1354 29.0424 34.1069 29.0511C34.0926 29.0555 34.079 29.0597 34.066 29.0638C34.0595 29.0658 34.0531 29.0678 34.047 29.0698C34.0439 29.0707 34.0408 29.0717 34.0378 29.0727C34.0363 29.0732 34.0341 29.0739 34.0333 29.0741C34.0311 29.0748 34.0289 29.0755 35.5589 33.8357ZM30.4044 50.4484C31.4235 45.3938 34.31 40.9088 38.4886 37.8875L32.6293 29.7839C26.4124 34.2789 22.1178 40.9517 20.6016 48.4721L30.4044 50.4484ZM32.9899 65.1606C30.3085 60.7562 29.3853 55.5031 30.4044 50.4484L20.6016 48.4721C19.0854 55.9925 20.4589 63.808 24.4484 70.3608L32.9899 65.1606ZM38.3079 70.9804C36.1934 69.4161 34.3815 67.4463 32.9899 65.1606L24.4484 70.3608C26.5188 73.7615 29.215 76.6925 32.3606 79.0196L38.3079 70.9804ZM20.5 80H35.3342V70H20.5V80ZM23 77.5C23 78.8807 21.8807 80 20.5 80V70C16.3579 70 13 73.3579 13 77.5H23ZM20.5 75C21.8807 75 23 76.1193 23 77.5H13C13 81.6421 16.3579 85 20.5 85V75ZM50.4596 75H20.5V85H50.4596V75ZM50.5314 75C50.5101 75.0001 50.4888 75.0001 50.4675 75L50.4517 85C50.4835 85.0001 50.5154 85.0001 50.5472 85L50.5314 75ZM76.5 75H50.5393V85H76.5V75ZM74 77.5C74 76.1193 75.1193 75 76.5 75V85C80.6421 85 84 81.6422 84 77.5H74ZM76.5 80C75.1193 80 74 78.8807 74 77.5H84C84 73.3579 80.6421 70 76.5 70V80ZM65.6659 80H76.5V70H65.6659V80ZM69.7059 61.6683C68.3099 65.4084 65.8624 68.6351 62.6922 70.9804L68.6396 79.0196C73.3559 75.5304 76.9976 70.73 79.0746 65.1651L69.7059 61.6683ZM69.4715 46.7326C71.4252 51.5045 71.5089 56.8374 69.7059 61.6683L79.0746 65.1651C81.7572 57.9776 81.6327 50.0433 78.7259 42.9436L69.4715 46.7326ZM59.1642 35.9209C63.8374 38.1003 67.5177 41.9607 69.4715 46.7326L78.7259 42.9436C75.819 35.8439 70.3435 30.1004 63.3906 26.858L59.1642 35.9209Z" fill="#2C3442" mask="url(#path-2-inside-1)"/>
<path d="M90 76.2679C91.3333 77.0378 91.3333 78.9623 90 79.7321L78 86.6603C76.6667 87.4301 75 86.4678 75 84.9282L75 71.0718C75 69.5322 76.6667 68.5699 78 69.3397L90 76.2679Z" fill="#2C3442"/>
<path d="M41 33.732C39.6667 32.9622 39.6667 31.0377 41 30.2679L53 23.3397C54.3333 22.5699 56 23.5322 56 25.0718L56 38.9282C56 40.4678 54.3333 41.4301 53 40.6603L41 33.732Z" fill="#2C3442"/>
</svg>
