<svg width="24" height="24" viewBox="0 0 24 24" fill="none" xmlns="http://www.w3.org/2000/svg">
<path fill-rule="evenodd" clip-rule="evenodd" d="M14.4999 1.28858C12.0822 0.724356 9.54474 0.994596 7.30009 2.05535C5.05545 3.11611 3.23565 4.905 2.13659 7.13115C1.03754 9.35729 0.723873 11.8898 1.24659 14.3168C1.76932 16.7438 3.09768 18.9226 5.0157 20.4989C6.93372 22.0753 9.32859 22.9564 11.8109 22.9991C14.2932 23.0418 16.7169 22.2435 18.688 20.7341C19.1265 20.3983 19.2097 19.7706 18.874 19.3321C18.5382 18.8936 17.9105 18.8104 17.472 19.1462C15.8593 20.3812 13.8762 21.0343 11.8453 20.9994C9.8143 20.9645 7.85487 20.2435 6.28558 18.9538C4.71629 17.6641 3.62944 15.8814 3.20176 13.8957C2.77408 11.9099 3.03072 9.83792 3.92994 8.01653C4.82917 6.19514 6.3181 4.7315 8.15462 3.86361C9.99115 2.99571 12.0673 2.77461 14.0454 3.23624C16.0235 3.69788 17.7873 4.8151 19.05 6.40625C20.3126 7.99739 20.9999 9.96892 21 12.0002V13.0001C21 13.5305 20.7893 14.0393 20.4142 14.4143C20.0392 14.7894 19.5304 15.0001 19 15.0001C18.4696 15.0001 17.9609 14.7894 17.5858 14.4143C17.2107 14.0393 17 13.5305 17 13.0001V8.00011C17 7.44783 16.5523 7.00011 16 7.00011C15.4478 7.00011 15.0002 7.44764 15 7.99976C14.1643 7.37206 13.1256 7.00011 12 7.00011C9.23858 7.00011 7 9.23868 7 12.0001C7 14.7615 9.23858 17.0001 12 17.0001C13.4881 17.0001 14.8244 16.35 15.7403 15.3184C15.8687 15.499 16.0128 15.6697 16.1716 15.8285C16.9217 16.5787 17.9391 17.0001 19 17.0001C20.0609 17.0001 21.0783 16.5787 21.8284 15.8285C22.5786 15.0784 23 14.061 23 13.0001V12C22.9999 9.51738 22.1599 7.10778 20.6166 5.16303C19.0734 3.21829 16.9176 1.8528 14.4999 1.28858ZM9 12.0001C9 10.3433 10.3431 9.00011 12 9.00011C13.6569 9.00011 15 10.3433 15 12.0001C15 13.657 13.6569 15.0001 12 15.0001C10.3431 15.0001 9 13.657 9 12.0001Z" fill="#2C3442"/>
</svg>
