<svg width="460" height="495" viewBox="0 0 460 495" fill="none" xmlns="http://www.w3.org/2000/svg">
<g clip-path="url(#clip0)">
<path fill-rule="evenodd" clip-rule="evenodd" d="M5.91555 63.7627V136.831H110.744L114.52 64.2744L5.91555 63.7627Z" fill="#D4D5CF"/>
<path fill-rule="evenodd" clip-rule="evenodd" d="M114.52 136.678H9.69109V64.2743H114.52V136.678Z" fill="#FFFFFE"/>
<path fill-rule="evenodd" clip-rule="evenodd" d="M114.023 136.18H10.1889V64.7716H114.023V136.18ZM115.017 137.175H9.19442V63.776H115.017V137.175Z" fill="#D4D5CF"/>
<path fill-rule="evenodd" clip-rule="evenodd" d="M103.167 127.682H21.0456V73.27H103.167V127.682Z" fill="#FFFFFE"/>
<path fill-rule="evenodd" clip-rule="evenodd" d="M21.0456 73.27C21.0456 73.27 21.1867 73.2789 21.45 73.2834C21.7278 73.2867 22.1144 73.2923 22.6178 73.2978C23.6589 73.3045 25.1689 73.3145 27.1289 73.3268C31.0733 73.3412 36.8089 73.3635 44.0511 73.3902C58.5333 73.4191 79.0322 73.4603 103.167 73.507L102.929 73.27C102.923 89.8943 102.916 108.315 102.908 127.676V127.682L103.167 127.423C72.1878 127.443 43.6267 127.461 21.0456 127.476L21.2522 127.682C21.2067 111.124 21.1689 97.5462 21.1433 88.0922C21.1211 83.3669 21.1033 79.675 21.0911 77.1455C21.08 75.8941 21.0733 74.9341 21.0678 74.2678C21.06 73.616 21.0456 73.27 21.0456 73.27C21.0456 73.27 21.03 73.5859 21.0233 74.2244C21.0178 74.8818 21.01 75.8285 21 77.0632C20.9878 79.5827 20.97 83.259 20.9478 87.9643C20.9222 97.4494 20.8845 111.07 20.84 127.682L20.8389 127.889H21.0456C43.6267 127.904 72.1878 127.921 103.167 127.941H103.426V127.676C103.418 108.315 103.411 89.8943 103.404 73.27V73.0309L103.167 73.032C78.9678 73.0798 58.4156 73.1199 43.8956 73.1488C36.6756 73.1766 30.9578 73.1977 27.0267 73.2122C25.0878 73.2255 23.5933 73.2344 22.5633 73.2411C22.0722 73.2478 21.6944 73.2522 21.4222 73.2556C21.1678 73.26 21.0456 73.27 21.0456 73.27Z" fill="#D4D5CF"/>
<path fill-rule="evenodd" clip-rule="evenodd" d="M114.52 64.0707C114.477 64.014 113.791 64.4645 112.718 65.2398C111.646 66.0151 110.186 67.1141 108.609 68.3778C107.032 69.6414 105.644 70.8361 104.668 71.7315C103.691 72.627 103.12 73.2165 103.167 73.2699C103.264 73.3801 105.784 71.2988 108.932 68.7816C112.082 66.2687 114.612 64.1897 114.52 64.0707Z" fill="#D4D5CF"/>
<path fill-rule="evenodd" clip-rule="evenodd" d="M9.69111 64.2743C9.60333 64.3867 12.0734 66.4913 15.2078 68.9752C18.3433 71.4591 20.9567 73.3823 21.0456 73.27C21.1333 73.1576 18.6656 71.0531 15.5289 68.568C12.3945 66.0853 9.78 64.162 9.69111 64.2743Z" fill="#D4D5CF"/>
<path fill-rule="evenodd" clip-rule="evenodd" d="M9.77554 136.688C13.67 133.526 17.5667 130.366 21.4622 127.204L9.77554 136.688Z" fill="#FFFFFE"/>
<path fill-rule="evenodd" clip-rule="evenodd" d="M21.4622 127.204C21.3722 127.094 18.6833 129.126 15.4567 131.745C12.2278 134.364 9.68554 136.577 9.77554 136.688C9.86554 136.799 12.5544 134.767 15.7822 132.147C19.0089 129.529 21.5522 127.315 21.4622 127.204Z" fill="#D4D5CF"/>
<path fill-rule="evenodd" clip-rule="evenodd" d="M114.52 136.678C114.609 136.566 112.166 134.482 109.062 132.026C105.959 129.568 103.371 127.668 103.283 127.78C103.194 127.892 105.638 129.975 108.741 132.433C111.844 134.889 114.432 136.79 114.52 136.678Z" fill="#D4D5CF"/>
<path fill-rule="evenodd" clip-rule="evenodd" d="M86.4922 108.442H34.8211V90.2224H86.4922V108.442Z" fill="#D4D5CF"/>
<path fill-rule="evenodd" clip-rule="evenodd" d="M295.71 22.8156C295.713 22.8256 295.801 22.7978 295.969 22.7355C296.169 22.6576 296.41 22.562 296.704 22.4463C297.394 22.1593 298.329 21.7688 299.509 21.2772C301.986 20.216 305.481 18.7176 309.778 16.8756C318.47 13.0858 330.392 7.88548 343.563 2.14125C343.964 1.9655 344.364 1.78863 344.734 1.62623L344.491 1.62734C357.44 7.17134 369.106 12.1647 377.596 15.7988C381.79 17.5641 385.198 18.9968 387.612 20.0124C388.76 20.4818 389.671 20.8534 390.343 21.1281C390.97 21.3773 391.303 21.4985 391.311 21.4796C391.319 21.4596 391.003 21.3016 390.391 21.0169C389.73 20.7165 388.834 20.3094 387.706 19.7966C385.309 18.7388 381.928 17.2449 377.764 15.4061C369.293 11.7287 357.653 6.67412 344.732 1.06449L344.611 1.01221L344.489 1.0656C344.119 1.228 343.719 1.40376 343.318 1.57951C330.174 7.38825 318.277 12.6464 309.603 16.4785C305.34 18.3962 301.871 19.9546 299.413 21.0592C298.253 21.5953 297.333 22.0202 296.654 22.3339C296.37 22.4718 296.137 22.5853 295.943 22.6787C295.784 22.76 295.706 22.8056 295.71 22.8156Z" fill="#D4D5CF"/>
<path fill-rule="evenodd" clip-rule="evenodd" d="M460 180.616H243.006V17.959H460V180.616Z" fill="#D4D5CF"/>
<path fill-rule="evenodd" clip-rule="evenodd" d="M452.414 173.931H249.778V25.5209H452.414V173.931Z" fill="#FAF9F6"/>
<path fill-rule="evenodd" clip-rule="evenodd" d="M407.656 90.3625C407.656 90.3625 407.444 115.276 406.179 122.877L374.967 121.4C374.967 121.4 377.709 96.9077 376.654 90.3625H407.656Z" fill="#D4D5CF"/>
<path fill-rule="evenodd" clip-rule="evenodd" d="M392.282 93.8853L392.168 93.8742C392.079 93.8708 391.969 93.8664 391.831 93.8608C391.534 93.8397 391.096 93.8608 390.532 93.9253C389.972 94.0143 389.284 94.1656 388.548 94.516C387.812 94.8653 387.051 95.4348 386.388 96.2268C385.749 97.0322 385.162 98.031 384.891 99.2357C384.634 100.439 384.764 101.793 385.219 103.096C385.44 103.751 385.741 104.395 386.096 105.026C386.448 105.654 386.801 106.288 387.094 106.974C387.684 108.338 388.151 109.839 388.357 111.408L388.37 111.513L388.471 111.514C389.456 111.531 390.498 111.547 391.553 111.564C392.66 111.582 393.751 111.598 394.786 111.615L394.9 111.616L394.904 111.499C394.958 109.928 395.663 108.497 396.403 107.229C396.778 106.588 397.189 105.989 397.572 105.382C397.948 104.785 398.37 104.215 398.668 103.591C399.284 102.348 399.389 100.971 399.157 99.7852C398.934 98.5972 398.54 97.5194 397.953 96.6717C397.369 95.8241 396.624 95.2324 395.922 94.8408C395.216 94.447 394.55 94.2335 394.004 94.0989C393.457 93.9665 393.023 93.9142 392.73 93.8908C392.583 93.8831 392.471 93.8764 392.396 93.8786L392.282 93.8853L392.396 93.8997C392.482 93.9098 392.591 93.9209 392.726 93.9353C393.017 93.972 393.444 94.0377 393.983 94.1812C394.521 94.3269 395.173 94.5494 395.861 94.9476C396.546 95.3425 397.264 95.9287 397.824 96.7607C398.386 97.5861 398.764 98.6517 398.976 99.8164C399.193 100.979 399.082 102.3 398.481 103.499C398.19 104.103 397.776 104.657 397.388 105.266C397.008 105.864 396.591 106.469 396.211 107.115C395.46 108.395 394.731 109.845 394.671 111.496L394.789 111.382C393.756 111.365 392.664 111.347 391.557 111.328C390.501 111.313 389.46 111.296 388.474 111.28L388.589 111.386C388.376 109.773 387.901 108.268 387.3 106.884C387.002 106.192 386.636 105.542 386.284 104.919C385.933 104.3 385.636 103.668 385.416 103.029C384.964 101.754 384.832 100.44 385.072 99.2736C385.324 98.1123 385.893 97.1156 386.509 96.3258C387.15 95.5449 387.886 94.9798 388.602 94.6261C389.319 94.2724 389.993 94.11 390.544 94.0099C391.1 93.9331 391.536 93.8986 391.831 93.9042C391.969 93.9009 392.079 93.8986 392.167 93.8953L392.282 93.8853Z" fill="#FFFFFE"/>
<path fill-rule="evenodd" clip-rule="evenodd" d="M390.681 111.241L390.701 111.144C390.712 111.075 390.727 110.978 390.748 110.854C390.788 110.595 390.844 110.22 390.918 109.739C391.058 108.77 391.266 107.365 391.406 105.617C391.439 105.18 391.469 104.721 391.487 104.244C391.502 103.765 391.522 103.267 391.494 102.75C391.466 102.235 391.382 101.692 391.143 101.187C390.904 100.688 390.507 100.221 389.953 99.9933C389.403 99.7563 388.706 99.8798 388.253 100.317C388.032 100.536 387.882 100.849 387.89 101.172C387.891 101.495 388.016 101.81 388.209 102.068C388.4 102.329 388.668 102.532 388.96 102.675C389.251 102.821 389.568 102.913 389.887 102.983C390.527 103.118 391.188 103.192 391.858 103.212C392.527 103.228 393.19 103.216 393.839 103.117C394.163 103.063 394.482 102.98 394.779 102.845C395.076 102.711 395.347 102.522 395.564 102.285C395.783 102.049 395.95 101.762 396.018 101.449C396.091 101.136 396.042 100.804 395.907 100.524C395.772 100.244 395.543 100.002 395.254 99.8876C394.963 99.7697 394.636 99.803 394.366 99.9287C394.094 100.054 393.869 100.257 393.703 100.493C393.537 100.732 393.437 101.002 393.371 101.271C393.243 101.815 393.247 102.354 393.213 102.865C393.16 103.894 393.11 104.852 393.064 105.727C392.977 107.474 392.906 108.889 392.856 109.871C392.833 110.357 392.816 110.736 392.804 110.998C392.799 111.124 392.796 111.221 392.792 111.291V111.392L392.803 111.291C392.808 111.223 392.814 111.125 392.823 110.999C392.84 110.738 392.863 110.359 392.893 109.873C392.95 108.891 393.032 107.477 393.133 105.731C393.182 104.856 393.237 103.898 393.294 102.87C393.329 102.357 393.328 101.82 393.454 101.291C393.519 101.03 393.617 100.769 393.774 100.544C393.932 100.319 394.148 100.127 394.403 100.011C394.656 99.8931 394.957 99.8653 395.221 99.9721C395.484 100.077 395.698 100.3 395.823 100.564C395.95 100.828 395.994 101.137 395.927 101.429C395.862 101.722 395.704 101.994 395.496 102.22C395.076 102.682 394.456 102.922 393.824 103.021C393.187 103.118 392.524 103.13 391.86 103.116C391.196 103.096 390.54 103.022 389.908 102.888C389.592 102.82 389.284 102.73 389.002 102.59C388.72 102.45 388.467 102.258 388.284 102.011C388.101 101.766 387.986 101.47 387.983 101.172C387.977 100.873 388.112 100.588 388.319 100.384C388.741 99.9732 389.401 99.852 389.92 100.077C390.447 100.291 390.833 100.741 391.067 101.224C391.299 101.713 391.384 102.245 391.414 102.754C391.443 103.266 391.424 103.763 391.411 104.24C391.397 104.717 391.368 105.176 391.337 105.612C391.207 107.358 391.009 108.762 390.88 109.733C390.816 110.216 390.763 110.592 390.729 110.851C390.712 110.977 390.7 111.072 390.691 111.142L390.681 111.241Z" fill="#FFFFFE"/>
<path fill-rule="evenodd" clip-rule="evenodd" d="M394.79 111.407C394.776 111.421 394.749 111.794 394.709 112.445C394.67 113.199 394.624 114.101 394.57 115.153L394.596 115.086C393.968 115.81 393.26 116.628 392.494 117.511L392.602 117.464C391.838 117.421 391.021 117.375 390.173 117.327L390.276 117.378C389.886 116.902 389.48 116.406 389.066 115.9C388.861 115.651 388.659 115.404 388.459 115.161L388.492 115.256C388.524 113.83 388.556 112.481 388.583 111.25L388.451 111.376C390.221 111.395 391.756 111.413 392.99 111.426C393.482 111.425 393.914 111.425 394.301 111.425C394.609 111.422 394.78 111.417 394.79 111.407C394.8 111.397 394.65 111.384 394.358 111.366C393.98 111.346 393.558 111.324 393.077 111.298C391.821 111.249 390.26 111.188 388.458 111.117L388.329 111.112L388.324 111.243C388.288 112.474 388.248 113.823 388.204 115.248L388.202 115.302L388.237 115.343C388.437 115.586 388.639 115.833 388.843 116.084C389.259 116.589 389.666 117.084 390.057 117.559L390.097 117.607L390.159 117.611C391.007 117.652 391.823 117.693 392.589 117.73L392.654 117.733L392.697 117.683C393.448 116.789 394.142 115.959 394.758 115.225L394.783 115.195V115.159C394.794 114.08 394.802 113.156 394.81 112.383C394.81 111.738 394.806 111.393 394.79 111.407Z" fill="#FFFFFE"/>
<path fill-rule="evenodd" clip-rule="evenodd" d="M388.521 114.926C388.524 114.932 388.604 114.894 388.751 114.829C388.897 114.762 389.111 114.672 389.381 114.579C389.92 114.392 390.702 114.217 391.576 114.245C392.448 114.27 393.219 114.493 393.744 114.712C394.01 114.821 394.218 114.924 394.359 115C394.5 115.075 394.579 115.118 394.583 115.111C394.587 115.106 394.514 115.052 394.378 114.967C394.241 114.881 394.037 114.768 393.772 114.649C393.247 114.411 392.466 114.174 391.578 114.147C390.691 114.12 389.897 114.308 389.359 114.514C389.088 114.616 388.876 114.718 388.734 114.795C388.592 114.871 388.518 114.921 388.521 114.926Z" fill="#FFFFFE"/>
<path fill-rule="evenodd" clip-rule="evenodd" d="M388.521 113.953C388.526 113.96 388.606 113.921 388.752 113.856C388.898 113.789 389.111 113.699 389.382 113.605C389.921 113.418 390.703 113.245 391.577 113.272C392.449 113.297 393.22 113.52 393.746 113.739C394.01 113.849 394.219 113.951 394.36 114.027C394.501 114.101 394.58 114.145 394.584 114.138C394.588 114.132 394.516 114.079 394.379 113.993C394.242 113.908 394.037 113.794 393.773 113.675C393.248 113.437 392.467 113.201 391.579 113.175C390.692 113.147 389.898 113.335 389.359 113.541C389.088 113.643 388.877 113.744 388.734 113.822C388.593 113.899 388.519 113.948 388.521 113.953Z" fill="#FFFFFE"/>
<path fill-rule="evenodd" clip-rule="evenodd" d="M388.579 113.028C388.582 113.035 388.663 112.997 388.809 112.93C388.956 112.864 389.169 112.773 389.44 112.681C389.978 112.493 390.761 112.319 391.633 112.346C392.507 112.372 393.277 112.594 393.803 112.813C394.068 112.923 394.276 113.027 394.417 113.101C394.559 113.177 394.638 113.219 394.641 113.213C394.644 113.208 394.572 113.155 394.436 113.069C394.299 112.983 394.094 112.869 393.83 112.751C393.304 112.512 392.524 112.275 391.637 112.249C390.749 112.222 389.956 112.411 389.417 112.616C389.146 112.718 388.934 112.819 388.792 112.897C388.65 112.973 388.576 113.022 388.579 113.028Z" fill="#FFFFFE"/>
<path fill-rule="evenodd" clip-rule="evenodd" d="M442.418 49.6345C442.418 49.6345 442.207 74.548 440.941 82.1488L409.729 80.6705C409.729 80.6705 412.471 56.1796 411.417 49.6345H442.418Z" fill="#E4E4DE"/>
<path fill-rule="evenodd" clip-rule="evenodd" d="M416.12 60.0996C416.11 60.2687 420.791 60.687 426.574 61.0362C432.359 61.3844 437.056 61.529 437.066 61.361C437.076 61.192 432.396 60.7726 426.61 60.4244C420.828 60.0763 416.13 59.9306 416.12 60.0996Z" fill="#FFFFFE"/>
<path fill-rule="evenodd" clip-rule="evenodd" d="M416.112 65.3755C416.101 65.5457 420.782 65.964 426.566 66.3121C432.35 66.6614 437.047 66.8071 437.057 66.637C437.068 66.469 432.388 66.0496 426.602 65.7015C420.82 65.3533 416.122 65.2076 416.112 65.3755Z" fill="#FFFFFE"/>
<path fill-rule="evenodd" clip-rule="evenodd" d="M421.418 70.558C421.407 70.726 424.07 71.0241 427.366 71.2221C430.661 71.4212 433.341 71.4446 433.351 71.2766C433.361 71.1076 430.698 70.8094 427.402 70.6103C424.108 70.4123 421.428 70.389 421.418 70.558Z" fill="#FFFFFE"/>
<path fill-rule="evenodd" clip-rule="evenodd" d="M443.896 122.932C443.896 122.932 443.684 147.846 442.419 155.447L411.207 153.968C411.207 153.968 413.948 129.476 412.893 122.932H443.896Z" fill="#E4E4DE"/>
<path fill-rule="evenodd" clip-rule="evenodd" d="M417.598 133.396C417.588 133.565 422.269 133.985 428.051 134.333C433.837 134.681 438.532 134.827 438.543 134.658C438.553 134.489 433.873 134.069 428.088 133.721C422.306 133.373 417.608 133.227 417.598 133.396Z" fill="#FFFFFE"/>
<path fill-rule="evenodd" clip-rule="evenodd" d="M417.589 138.673C417.579 138.842 422.26 139.262 428.043 139.61C433.828 139.958 438.524 140.104 438.534 139.935C438.544 139.766 433.864 139.346 428.08 138.998C422.297 138.65 417.6 138.504 417.589 138.673Z" fill="#FFFFFE"/>
<path fill-rule="evenodd" clip-rule="evenodd" d="M422.894 143.855C422.884 144.024 425.548 144.322 428.843 144.52C432.139 144.718 434.818 144.742 434.828 144.573C434.838 144.404 432.176 144.106 428.879 143.908C425.584 143.71 422.904 143.686 422.894 143.855Z" fill="#FFFFFE"/>
<path fill-rule="evenodd" clip-rule="evenodd" d="M358.598 56.2375L355.506 128.096L265.902 129.177L269.924 57.1875L358.598 56.2375Z" fill="#E4E4DE"/>
<path fill-rule="evenodd" clip-rule="evenodd" d="M359.636 123.008H270.628V55.7225H359.636V123.008Z" fill="#F1F0EC"/>
<path fill-rule="evenodd" clip-rule="evenodd" d="M270.628 123.008C270.628 123.008 270.646 122.574 270.656 121.76C270.661 120.928 270.671 119.729 270.683 118.169C270.699 115.015 270.72 110.419 270.748 104.555C270.779 92.8219 270.824 76.0331 270.879 55.7236L270.628 55.975C295.79 55.9895 326.504 56.0095 359.628 56.0295H359.636L359.329 55.7236C359.34 79.9219 359.35 102.834 359.359 123.008L359.636 122.732C333.299 122.789 311.084 122.836 295.432 122.869C287.604 122.901 281.422 122.926 277.172 122.944C275.064 122.958 273.44 122.968 272.319 122.977C271.779 122.982 271.364 122.988 271.063 122.992C270.779 122.998 270.628 123.008 270.628 123.008C270.628 123.008 270.758 123.019 271.031 123.025C271.326 123.028 271.73 123.034 272.256 123.04C273.366 123.048 274.971 123.059 277.056 123.074C281.291 123.09 287.452 123.116 295.252 123.147C310.949 123.18 333.226 123.228 359.636 123.284L359.911 123.285V123.008C359.92 102.834 359.93 79.9219 359.941 55.7236V55.4166H359.628C326.504 55.4366 295.79 55.4556 270.628 55.4711H270.376L270.377 55.7236C270.43 76.0998 270.476 92.9421 270.507 104.712C270.534 110.552 270.557 115.129 270.571 118.272C270.584 119.81 270.593 120.992 270.6 121.814C270.609 122.611 270.628 123.008 270.628 123.008Z" fill="#D4D5CF"/>
<path fill-rule="evenodd" clip-rule="evenodd" d="M348.898 115.438H312.816V69.9774H348.898V115.438Z" fill="#F1F0EC"/>
<path fill-rule="evenodd" clip-rule="evenodd" d="M312.816 115.438C312.821 115.433 312.827 115.356 312.832 115.208C312.836 115.036 312.841 114.826 312.848 114.562C312.856 113.963 312.867 113.135 312.88 112.076C312.898 109.879 312.922 106.728 312.953 102.75C312.987 94.7474 313.034 83.4236 313.09 69.9774L312.817 70.2522C323.569 70.2611 335.873 70.2722 348.894 70.2844C348.967 70.3489 348.318 69.7082 348.592 69.9852V73.1154C348.592 74.1588 348.592 75.1966 348.593 76.2289C348.593 78.2934 348.594 80.3357 348.596 82.3546C348.599 86.3914 348.602 90.3314 348.606 94.1512C348.62 101.786 348.632 108.942 348.644 115.437L348.898 115.184C338.072 115.238 329.09 115.284 322.773 115.315C319.64 115.344 317.17 115.365 315.444 115.381C314.62 115.393 313.974 115.403 313.501 115.41C313.059 115.42 312.816 115.438 312.816 115.438C312.807 115.447 313.021 115.456 313.447 115.466C313.909 115.473 314.538 115.483 315.341 115.495C317.054 115.511 319.506 115.533 322.614 115.561C328.969 115.592 338.007 115.638 348.898 115.692L349.151 115.693L349.152 115.437C349.163 108.942 349.177 101.786 349.19 94.1512C349.193 90.3314 349.197 86.3914 349.2 82.3546C349.201 80.3357 349.202 78.2934 349.202 76.2289C349.203 75.1966 349.203 74.1588 349.203 73.1154V69.9852C349.477 70.2566 348.833 69.6025 348.894 69.6715C335.873 69.6826 323.569 69.6938 312.817 69.7027L312.541 69.7038L312.542 69.9774C312.599 83.4959 312.646 94.8809 312.679 102.927C312.71 106.879 312.734 110.01 312.752 112.191C312.766 113.228 312.777 114.037 312.784 114.623C312.791 114.874 312.796 115.076 312.8 115.24C312.806 115.377 312.811 115.443 312.816 115.438Z" fill="#D4D5CF"/>
<path fill-rule="evenodd" clip-rule="evenodd" d="M347.516 66.1242H278.367V59.5746H347.516V66.1242Z" fill="#F1F0EC"/>
<path fill-rule="evenodd" clip-rule="evenodd" d="M278.367 66.1253C278.374 66.1175 278.382 65.9651 278.391 65.677C278.399 65.3577 278.409 64.9384 278.42 64.4067C278.437 63.2676 278.46 61.6513 278.491 59.5746L278.367 59.6992C290.029 59.8059 316.609 59.8816 347.512 59.8816H347.516C346.904 59.2687 347.347 59.7125 347.209 59.5768V60.4122L347.21 61.2487C347.21 61.806 347.21 62.3599 347.21 62.9083C347.21 64.004 347.21 65.0819 347.21 66.1253L347.516 65.8205C328.178 65.8716 310.946 65.9173 298.502 65.9506C292.298 65.9884 287.29 66.0196 283.79 66.0407C282.081 66.0585 280.741 66.073 279.788 66.083C279.352 66.0919 279.007 66.0986 278.738 66.1041C278.5 66.1119 278.374 66.1175 278.367 66.1253C278.36 66.1319 278.472 66.1386 278.697 66.1464C278.954 66.152 279.288 66.1586 279.707 66.1675C280.642 66.1775 281.959 66.1909 283.64 66.2098C287.122 66.2309 292.106 66.2621 298.279 66.2999C310.779 66.3333 328.09 66.3789 347.516 66.43L347.82 66.4312V66.1253C347.821 65.0819 347.821 64.004 347.821 62.9083C347.821 62.3599 347.821 61.806 347.821 61.2487V59.5768C347.686 59.44 348.128 59.8805 347.516 59.2687H347.512C316.609 59.2687 290.029 59.3443 278.367 59.4511L278.241 59.4522L278.243 59.5746C278.274 61.6825 278.297 63.3232 278.314 64.4779C278.326 64.9984 278.336 65.4089 278.343 65.7204C278.351 65.9973 278.36 66.133 278.367 66.1253Z" fill="#D4D5CF"/>
<path fill-rule="evenodd" clip-rule="evenodd" d="M308.399 97.3759H278.367V69.9774H308.399V97.3759Z" fill="#F1F0EC"/>
<path fill-rule="evenodd" clip-rule="evenodd" d="M278.367 97.3759C278.377 97.367 278.387 97.1868 278.396 96.8464C278.404 96.4671 278.413 95.9755 278.427 95.3592C278.442 94.0199 278.466 92.1423 278.494 89.7741C278.527 84.9531 278.572 78.1477 278.628 69.9774L278.367 70.2388C287.041 70.251 297.354 70.2666 308.396 70.2844C308.466 70.3489 307.819 69.706 308.092 69.9819V70.9084L308.093 71.8384C308.093 72.458 308.093 73.0742 308.093 73.6882C308.094 74.9152 308.094 76.1321 308.096 77.3368C308.098 79.745 308.1 82.1055 308.102 84.4047C308.112 89.001 308.121 93.3547 308.13 97.3759L308.399 97.1079C299.492 97.1635 292.029 97.2102 286.737 97.2436C284.131 97.2736 282.062 97.297 280.59 97.3136C279.909 97.327 279.366 97.3381 278.951 97.3459C278.576 97.3559 278.378 97.3659 278.367 97.3759C278.357 97.3871 278.536 97.3971 278.891 97.4071C279.293 97.4149 279.819 97.4249 280.479 97.4382C281.936 97.4549 283.984 97.4794 286.563 97.5094C291.899 97.5428 299.421 97.5895 308.399 97.6451L308.667 97.6473L308.668 97.3759C308.676 93.3547 308.686 89.001 308.694 84.4047C308.698 82.1055 308.7 79.745 308.702 77.3368C308.703 76.1321 308.703 74.9152 308.704 73.6882C308.704 73.0742 308.704 72.458 308.704 71.8384V69.9819C308.978 70.2533 308.333 69.6037 308.396 69.6715C297.354 69.6871 287.041 69.7038 278.367 69.7171H278.106L278.107 69.9774C278.161 78.2155 278.208 85.0788 278.24 89.9398C278.269 92.2824 278.292 94.1401 278.308 95.466C278.32 96.0611 278.33 96.5372 278.338 96.9032C278.348 97.2246 278.358 97.3859 278.367 97.3759Z" fill="#D4D5CF"/>
<path fill-rule="evenodd" clip-rule="evenodd" d="M308.399 115.438H278.367V101.671H308.399V115.438Z" fill="#F1F0EC"/>
<path fill-rule="evenodd" clip-rule="evenodd" d="M278.367 115.438C278.382 115.423 278.398 115.079 278.414 114.439C278.429 113.748 278.447 112.828 278.47 111.675C278.499 109.246 278.539 105.845 278.59 101.672L278.367 101.894C286.199 101.915 296.767 101.945 308.397 101.978C308.671 102.251 308.027 101.604 308.092 101.673V102.575L308.093 103.475C308.093 104.074 308.093 104.671 308.093 105.262C308.094 106.446 308.096 107.616 308.097 108.768C308.101 111.07 308.104 113.301 308.109 115.437L308.399 115.147C299.737 115.203 292.284 115.251 286.923 115.286C284.298 115.319 282.188 115.346 280.666 115.366C279.972 115.38 279.413 115.393 278.974 115.403C278.587 115.414 278.379 115.426 278.367 115.438C278.356 115.449 278.539 115.462 278.906 115.473C279.329 115.483 279.868 115.495 280.537 115.51C282.043 115.53 284.13 115.556 286.728 115.59C292.139 115.624 299.658 115.673 308.399 115.729L308.689 115.73V115.437C308.692 113.301 308.697 111.07 308.701 108.768C308.702 107.616 308.703 106.446 308.703 105.262C308.704 104.671 308.704 104.074 308.704 103.475V101.673C308.772 101.737 308.124 101.091 308.397 101.365C296.767 101.397 286.199 101.427 278.367 101.449H278.142L278.144 101.672C278.194 105.902 278.236 109.349 278.264 111.811C278.288 112.942 278.306 113.845 278.32 114.525C278.337 115.139 278.351 115.453 278.367 115.438Z" fill="#D4D5CF"/>
<path fill-rule="evenodd" clip-rule="evenodd" d="M313.709 70.0564C324.878 85.5015 337.729 99.9922 348.898 115.438L313.709 70.0564Z" fill="#FFFFFE"/>
<path fill-rule="evenodd" clip-rule="evenodd" d="M348.898 115.438C348.914 115.426 348.812 115.252 348.603 114.931C348.348 114.555 348.037 114.099 347.66 113.546C346.836 112.348 345.6 110.645 344.048 108.56C340.948 104.385 336.511 98.7352 331.542 92.5561C326.572 86.3758 322.088 80.7751 318.902 76.6716C317.357 74.6738 316.084 73.0297 315.138 71.8061C314.726 71.2811 314.384 70.8472 314.103 70.4902C313.861 70.1932 313.727 70.0441 313.709 70.0564C313.691 70.0686 313.793 70.2421 314.003 70.5636C314.259 70.9374 314.57 71.3956 314.947 71.9474C315.772 73.1443 317.007 74.8484 318.558 76.9341C321.658 81.1088 326.096 86.7596 331.066 92.9398C336.033 99.1179 340.519 104.719 343.704 108.822C345.25 110.82 346.521 112.464 347.468 113.688C347.881 114.213 348.223 114.648 348.503 115.003C348.746 115.3 348.88 115.45 348.898 115.438Z" fill="#D4D5CF"/>
<path fill-rule="evenodd" clip-rule="evenodd" d="M348.898 69.9774L312.816 115.438L348.898 69.9774Z" fill="#FFFFFE"/>
<path fill-rule="evenodd" clip-rule="evenodd" d="M312.816 115.437C312.949 115.543 321.133 105.451 331.096 92.8998C341.061 80.3435 349.03 70.0831 348.898 69.9774C348.766 69.8717 340.582 79.9619 330.617 92.5182C320.654 105.07 312.684 115.333 312.816 115.437Z" fill="#D4D5CF"/>
<path fill-rule="evenodd" clip-rule="evenodd" d="M355.506 70.0741C355.506 73.1954 358.032 75.7249 361.15 75.7249C364.267 75.7249 366.794 73.1954 366.794 70.0741C366.794 66.9528 364.267 64.4233 361.15 64.4233C358.032 64.4233 355.506 66.9528 355.506 70.0741Z" fill="#D4D5CF"/>
<path fill-rule="evenodd" clip-rule="evenodd" d="M263.186 56.3576C263.186 59.4778 265.713 62.0084 268.83 62.0084C271.948 62.0084 274.476 59.4778 274.476 56.3576C274.476 53.2363 271.948 50.7057 268.83 50.7057C265.713 50.7057 263.186 53.2363 263.186 56.3576Z" fill="#D4D5CF"/>
<path fill-rule="evenodd" clip-rule="evenodd" d="M99.3867 448.202C99.3867 448.66 99.3867 473.534 99.3867 473.534H103.611V476.282H99.3867V493.236H20.4189V477.808H26.2678V474.449H20.4189V469.409H17.8189V467.118H20.9056V448.202H99.3867Z" fill="#F1F0EC"/>
<path fill-rule="evenodd" clip-rule="evenodd" d="M41.3889 448.276V492.954H20.4189V477.527H26.2678V474.449L20.4189 474.554V469.513L17.7678 469.516L17.8189 466.911L20.9055 466.836V448.202L41.3889 448.276Z" fill="#D4D5CF"/>
<path fill-rule="evenodd" clip-rule="evenodd" d="M39.8944 475.919C39.8944 476.073 54.1833 476.199 71.8078 476.199C89.4356 476.199 103.722 476.073 103.722 475.919C103.722 475.763 89.4356 475.637 71.8078 475.637C54.1833 475.637 39.8944 475.763 39.8944 475.919Z" fill="#D4D5CF"/>
<path fill-rule="evenodd" clip-rule="evenodd" d="M39.8944 473.346C39.8944 473.5 54.1833 473.626 71.8078 473.626C89.4356 473.626 103.722 473.5 103.722 473.346C103.722 473.19 89.4356 473.065 71.8078 473.065C54.1833 473.065 39.8944 473.19 39.8944 473.346Z" fill="#D4D5CF"/>
<path fill-rule="evenodd" clip-rule="evenodd" d="M35.7956 466.42C35.7956 466.576 50.0845 466.7 67.7078 466.7C85.3367 466.7 99.6233 466.576 99.6233 466.42C99.6233 466.264 85.3367 466.14 67.7078 466.14C50.0845 466.14 35.7956 466.264 35.7956 466.42Z" fill="#D4D5CF"/>
<path fill-rule="evenodd" clip-rule="evenodd" d="M35.4011 485.291C35.4011 485.447 49.69 485.572 67.3133 485.572C84.9422 485.572 99.2289 485.447 99.2289 485.291C99.2289 485.135 84.9422 485.01 67.3133 485.01C49.69 485.01 35.4011 485.135 35.4011 485.291Z" fill="#D4D5CF"/>
<path fill-rule="evenodd" clip-rule="evenodd" d="M337.81 367.835H277.569C273.329 367.835 269.893 364.395 269.893 360.151V341.57C269.893 334.419 275.683 328.621 282.827 328.621H338.264L337.81 367.835Z" fill="#E4E4DE"/>
<path fill-rule="evenodd" clip-rule="evenodd" d="M278.577 379.523H397.033C400.257 379.523 402.87 376.905 402.87 373.679C402.87 370.452 400.257 367.835 397.033 367.835H278.577C275.353 367.835 272.74 370.452 272.74 373.679C272.74 376.905 275.353 379.523 278.577 379.523Z" fill="#E4E4DE"/>
<path fill-rule="evenodd" clip-rule="evenodd" d="M421.172 212.137L356.007 210.983L314.639 367.493L402.87 368.38L436.124 231.173C438.474 221.477 431.139 212.137 421.172 212.137Z" fill="#D4D5CF"/>
<path fill-rule="evenodd" clip-rule="evenodd" d="M388.712 379.522L408.212 492.963H402.87L377.234 379.522H388.712Z" fill="#E4E4DE"/>
<path fill-rule="evenodd" clip-rule="evenodd" d="M342.744 379.522L363.464 492.963H358.123L331.264 379.522H342.744Z" fill="#D4D5CF"/>
<path fill-rule="evenodd" clip-rule="evenodd" d="M291.903 379.522L268.787 492.963H274.129L303.382 379.522H291.903Z" fill="#E4E4DE"/>
<mask id="mask0" mask-type="alpha" maskUnits="userSpaceOnUse" x="-1" y="210" width="461" height="285">
<path d="M459.076 210.983H-0.0788574V494.136H459.076V210.983Z" fill="white"/>
</mask>
<g mask="url(#mask0)">
<path fill-rule="evenodd" clip-rule="evenodd" d="M363.464 210.983L331.214 367.66H306.482L332.344 229.219C334.299 218.651 343.507 210.983 354.243 210.983H363.464Z" fill="#E4E4DE"/>
<path fill-rule="evenodd" clip-rule="evenodd" d="M-0.0800171 493.579C-0.0800171 493.74 102.714 493.87 229.487 493.87C356.303 493.87 459.076 493.74 459.076 493.579C459.076 493.419 356.303 493.289 229.487 493.289C102.714 493.289 -0.0800171 493.419 -0.0800171 493.579Z" fill="#132529"/>
</g>
<path fill-rule="evenodd" clip-rule="evenodd" d="M291.136 493.901H376.09L369.661 431.988L291.136 431.483V493.901Z" fill="#E0565F"/>
<mask id="mask1" mask-type="alpha" maskUnits="userSpaceOnUse" x="363" y="431" width="14" height="63">
<path d="M363.702 493.901H376.09L369.661 431.988L363.702 431.949V493.901Z" fill="white"/>
</mask>
<g mask="url(#mask1)">
<path fill-rule="evenodd" clip-rule="evenodd" d="M376.09 493.901H363.703V431.949H376.09V493.901Z" fill="#8C2F39"/>
</g>
<path fill-rule="evenodd" clip-rule="evenodd" d="M363.702 493.901H278.749V431.483H363.702V493.901Z" fill="#E0565F"/>
<path fill-rule="evenodd" clip-rule="evenodd" d="M363.702 493.901H278.749V431.483H363.702V493.901Z" fill="#C8444D"/>
<path fill-rule="evenodd" clip-rule="evenodd" d="M278.026 461.698C278.026 461.857 297.14 461.988 320.714 461.988C344.296 461.988 363.407 461.857 363.407 461.698C363.407 461.538 344.296 461.409 320.714 461.409C297.14 461.409 278.026 461.538 278.026 461.698Z" fill="#132529"/>
<path fill-rule="evenodd" clip-rule="evenodd" d="M348.566 467.708C348.724 467.708 348.854 465.615 348.854 463.034C348.854 460.452 348.724 458.359 348.566 458.359C348.406 458.359 348.276 460.452 348.276 463.034C348.276 465.615 348.406 467.708 348.566 467.708Z" fill="#132529"/>
<path fill-rule="evenodd" clip-rule="evenodd" d="M289.532 467.373C289.692 467.373 289.822 465.506 289.822 463.201C289.822 460.895 289.692 459.027 289.532 459.027C289.372 459.027 289.243 460.895 289.243 463.201C289.243 465.506 289.372 467.373 289.532 467.373Z" fill="#132529"/>
<path fill-rule="evenodd" clip-rule="evenodd" d="M308.207 431.801C308.264 431.8 308.221 431.129 308.412 429.954C308.604 428.787 309.103 427.097 310.293 425.337C311.47 423.582 313.357 421.793 315.908 420.625C318.443 419.443 321.548 418.859 324.786 418.943C328.027 419.024 331.102 419.713 333.623 420.935C336.153 422.145 338.078 423.885 339.292 425.618C340.524 427.347 341.12 428.999 341.376 430.157C341.638 431.321 341.649 431.991 341.704 431.988C341.724 431.988 341.733 431.822 341.732 431.502C341.73 431.184 341.704 430.71 341.596 430.113C341.404 428.918 340.854 427.195 339.628 425.383C338.422 423.569 336.454 421.728 333.857 420.455C331.269 419.168 328.113 418.446 324.8 418.365C321.487 418.278 318.292 418.891 315.681 420.143C313.054 421.376 311.118 423.274 309.952 425.113C308.768 426.958 308.317 428.719 308.189 429.922C308.121 430.525 308.118 431 308.143 431.317C308.166 431.638 308.187 431.802 308.207 431.801Z" fill="#132529"/>
<path fill-rule="evenodd" clip-rule="evenodd" d="M340.072 190.734C336.111 188.687 331.447 188.421 327.05 189.149C324.688 189.54 322.224 190.248 320.617 192.024C319.01 193.802 318.704 196.928 320.551 198.454C321.65 199.363 323.181 199.5 324.607 199.484C328.049 199.444 331.869 198.838 334.619 200.911C336.189 202.095 337.232 204.061 339.109 204.643C340.944 205.211 343.016 204.128 343.989 202.468C344.962 200.811 344.994 198.737 344.54 196.869C344.54 196.869 344.062 192.795 340.072 190.734Z" fill="#E0565F"/>
<path fill-rule="evenodd" clip-rule="evenodd" d="M349.148 173.195C346.726 176.658 342.018 175.513 339.836 173.398C337.652 171.284 336.73 168.221 335.89 165.299C333.971 158.624 332.037 151.621 333.463 144.823C333.89 142.79 334.649 140.764 336.076 139.256C337.502 137.748 339.696 136.851 341.701 137.382C344.074 138.009 345.55 140.337 346.617 142.551C349.75 149.058 351.41 156.273 351.434 163.498C351.446 166.872 351.049 170.41 349.148 173.195Z" fill="#E0565F"/>
<path fill-rule="evenodd" clip-rule="evenodd" d="M355.799 178.164C353.169 175.04 352.67 170.482 353.84 166.569C355.01 162.655 357.653 159.324 360.701 156.606C364.272 153.418 368.472 150.937 372.986 149.349C374.762 148.724 376.637 148.23 378.511 148.409C380.386 148.588 382.273 149.548 383.148 151.217C384.441 153.686 383.201 156.68 381.86 159.123C379.499 163.427 376.798 167.545 373.791 171.425C371.373 174.546 368.602 177.626 364.916 179.036C361.23 180.447 357.401 180.281 355.448 177.722" fill="#E0565F"/>
<path fill-rule="evenodd" clip-rule="evenodd" d="M349.311 225.437C349.267 225.44 349.192 224.879 349.092 223.863C348.981 222.719 348.841 221.281 348.674 219.569C348.476 217.762 348.211 215.611 347.71 213.269C347.21 210.933 346.428 208.402 345.423 205.834C344.382 203.283 343.113 200.962 341.63 199.108C340.158 197.244 338.446 195.895 336.837 195.117C335.232 194.324 333.793 194.001 332.799 193.859C331.796 193.755 331.234 193.676 331.233 193.632C331.233 193.587 331.796 193.579 332.826 193.607C333.847 193.675 335.346 193.934 337.037 194.704C338.732 195.457 340.549 196.826 342.093 198.729C343.65 200.623 344.966 202.993 346.024 205.592C347.047 208.204 347.818 210.762 348.296 213.148C348.771 215.531 348.989 217.704 349.131 219.526C349.268 221.351 349.319 222.828 349.344 223.848C349.367 224.869 349.356 225.434 349.311 225.437Z" fill="#132529"/>
<path fill-rule="evenodd" clip-rule="evenodd" d="M349.016 222.133C348.993 222.131 348.98 221.88 348.973 221.402C348.976 220.853 348.977 220.163 348.979 219.314C348.984 217.502 348.983 214.88 348.887 211.642C348.727 205.165 348.169 198.195 347.093 188.368C346.074 179.128 344.707 168.374 343.264 161.382C342.954 159.791 342.643 158.361 342.349 157.108C342.07 155.853 341.831 154.769 341.6 153.894C341.402 153.068 341.241 152.397 341.113 151.864C341.008 151.398 340.963 151.15 340.986 151.143C341.007 151.137 341.093 151.373 341.239 151.828C341.398 152.353 341.598 153.015 341.844 153.829C342.113 154.697 342.388 155.773 342.702 157.024C343.03 158.271 343.373 159.699 343.713 161.286C345.14 167.621 346.652 176.476 347.739 186.327C348.817 196.173 349.302 205.14 349.344 211.633C349.383 214.879 349.314 217.507 349.231 219.321C349.18 220.169 349.138 220.859 349.104 221.407C349.068 221.885 349.038 222.134 349.016 222.133Z" fill="#132529"/>
<path fill-rule="evenodd" clip-rule="evenodd" d="M348.972 204.839C348.928 204.838 348.936 204.063 348.988 202.657C349.068 201.256 349.26 199.23 349.656 196.749C350.073 194.272 350.657 191.332 351.574 188.139C351.972 186.678 352.907 183.179 355.171 177.951C358.154 170.865 362.207 165.073 365.733 161.486C366.56 160.533 367.481 159.847 368.218 159.174C368.599 158.852 368.936 158.529 369.279 158.274C369.624 158.036 369.946 157.814 370.242 157.609C371.403 156.815 372.053 156.395 372.078 156.433C372.181 156.575 369.478 158.167 366.064 161.803C362.666 165.431 358.726 171.183 355.767 178.208C354.117 182.019 352.967 185.417 352.15 188.302C351.207 191.466 350.58 194.376 350.107 196.827C349.658 199.284 349.397 201.289 349.24 202.678C349.11 204.069 349.017 204.841 348.972 204.839Z" fill="#132529"/>
<path fill-rule="evenodd" clip-rule="evenodd" d="M365.669 235.345L363.938 259.085H333.473L331.743 235.345H365.669Z" fill="#132529"/>
<path fill-rule="evenodd" clip-rule="evenodd" d="M368.611 235.345H328.108V225.988H368.611V235.345Z" fill="#132529"/>
<path fill-rule="evenodd" clip-rule="evenodd" d="M368.611 260.77H328.778V258.176H368.611V260.77Z" fill="#334F55"/>
<path fill-rule="evenodd" clip-rule="evenodd" d="M364.843 265.335L366.708 260.77H330.228L332.404 265.335H364.843Z" fill="#334F55"/>
<path fill-rule="evenodd" clip-rule="evenodd" d="M332.309 243.104C332.302 243.109 332.35 243.184 332.45 243.322C332.571 243.482 332.721 243.681 332.906 243.927C333.339 244.481 333.932 245.242 334.68 246.2L334.759 246.301L334.836 246.196C335.951 244.651 337.441 242.588 339.196 240.158H338.944C340.241 241.997 341.687 244.045 343.237 246.244L343.372 246.433L343.522 246.254C345.107 244.368 346.827 242.319 348.613 240.191L348.32 240.187C348.409 240.299 348.504 240.419 348.6 240.54C350.179 242.521 351.707 244.439 353.152 246.252L353.303 246.443L353.443 246.245C354.989 244.056 356.433 242.01 357.739 240.162L357.489 240.173C359.606 242.587 361.4 244.635 362.778 246.206L362.872 246.313L362.943 246.193C363.641 245.019 364.197 244.085 364.6 243.408C364.773 243.105 364.913 242.86 365.024 242.666C365.118 242.495 365.162 242.406 365.154 242.401C365.147 242.396 365.086 242.477 364.977 242.636C364.853 242.824 364.699 243.059 364.507 243.35C364.083 244.016 363.5 244.934 362.768 246.084L362.933 246.072C361.578 244.481 359.812 242.409 357.729 239.965L357.598 239.81L357.479 239.977C356.162 241.818 354.706 243.854 353.147 246.033L353.438 246.025C351.997 244.208 350.471 242.287 348.897 240.303C348.801 240.182 348.704 240.062 348.617 239.95L348.472 239.769L348.322 239.947C346.541 242.078 344.826 244.132 343.247 246.023L343.531 246.034C341.964 243.847 340.506 241.809 339.196 239.979L339.069 239.802L338.944 239.979C337.228 242.435 335.769 244.521 334.677 246.083L334.832 246.077C334.054 245.144 333.436 244.402 332.986 243.861C332.786 243.629 332.622 243.441 332.491 243.289C332.377 243.162 332.316 243.098 332.309 243.104Z" fill="#D4D5CF"/>
<path fill-rule="evenodd" clip-rule="evenodd" d="M331.319 235.188C331.319 235.293 338.952 235.377 348.367 235.377C357.783 235.377 365.416 235.293 365.416 235.188C365.416 235.084 357.783 234.998 348.367 234.998C338.952 234.998 331.319 235.084 331.319 235.188Z" fill="#334F55"/>
<path fill-rule="evenodd" clip-rule="evenodd" d="M329.78 261.026C329.78 261.131 338.076 261.215 348.307 261.215C358.542 261.215 366.836 261.131 366.836 261.026C366.836 260.922 358.542 260.837 348.307 260.837C338.076 260.837 329.78 260.922 329.78 261.026Z" fill="#132529"/>
<path fill-rule="evenodd" clip-rule="evenodd" d="M172.163 265.865H82.9678V261.522H172.163V265.865Z" fill="#132529"/>
<path fill-rule="evenodd" clip-rule="evenodd" d="M69.1445 265.865L52.4145 203.099H122.059L137.209 265.865H69.1445Z" fill="#132529"/>
<path fill-rule="evenodd" clip-rule="evenodd" d="M133.036 261.114H70.8178L56.3367 205.999H118.874L133.036 261.114Z" fill="#334F55"/>
<path fill-rule="evenodd" clip-rule="evenodd" d="M132.32 260.558H71.2467L57.0567 206.555H118.443L132.32 260.558ZM70.3889 261.67H133.752L119.306 205.443H55.6155L70.3889 261.67Z" fill="#132529"/>
<path fill-rule="evenodd" clip-rule="evenodd" d="M355.994 493.358H351.49V278.051H355.994V493.358Z" fill="#334F55"/>
<path fill-rule="evenodd" clip-rule="evenodd" d="M351.489 493.358H346.984V278.669H351.489V493.358Z" fill="#132529"/>
<path fill-rule="evenodd" clip-rule="evenodd" d="M78.4767 493.358H73.9711V278.051H78.4767V493.358Z" fill="#334F55"/>
<path fill-rule="evenodd" clip-rule="evenodd" d="M73.9711 493.358H69.4656V278.669H73.9711V493.358Z" fill="#132529"/>
<path fill-rule="evenodd" clip-rule="evenodd" d="M408.212 283.201H6.62225V265.542H408.212V283.201Z" fill="#334F55"/>
<path fill-rule="evenodd" clip-rule="evenodd" d="M226.852 312.431H76.2234V283.201H226.852V312.431Z" fill="#334F55"/>
<path fill-rule="evenodd" clip-rule="evenodd" d="M144.824 295.799C144.824 297.654 146.327 299.159 148.181 299.159C150.034 299.159 151.538 297.654 151.538 295.799C151.538 293.942 150.034 292.438 148.181 292.438C146.327 292.438 144.824 293.942 144.824 295.799Z" fill="#132529"/>
<path fill-rule="evenodd" clip-rule="evenodd" d="M43.4056 283.201C43.4056 283.362 95.5955 283.491 159.96 283.491C224.347 283.491 276.526 283.362 276.526 283.201C276.526 283.042 224.347 282.912 159.96 282.912C95.5955 282.912 43.4056 283.042 43.4056 283.201Z" fill="#132529"/>
<path fill-rule="evenodd" clip-rule="evenodd" d="M182.412 75.4067C181.811 75.4067 173.686 76.7627 173.686 76.7627L162.702 90.6205L161.048 93.2468L175.866 102.73L182.412 93.0299L187.979 89.4147C187.979 89.4147 185.571 87.3068 182.111 88.8129C178.651 90.319 175.191 90.1677 175.191 90.1677L177.146 84.5948L183.164 83.3901L182.412 75.4067Z" fill="#EA8E6C"/>
<path fill-rule="evenodd" clip-rule="evenodd" d="M181.703 65.7004C180.724 65.4523 179.744 66.0942 179.587 67.0919C178.684 72.7783 175.967 89.8809 175.109 94.9299C174.968 95.7563 175.477 96.5483 176.284 96.7719L189.422 100.409C190.382 100.675 191.354 100.026 191.478 99.0367L195.01 70.637C195.117 69.7772 194.568 68.9718 193.729 68.7594L181.703 65.7004Z" fill="#132529"/>
<path fill-rule="evenodd" clip-rule="evenodd" d="M190.5 96.8999L177.176 93.1823L180.709 69.5525C180.911 68.2021 182.24 67.3278 183.559 67.6793L194.237 70.5203L190.5 96.8999Z" fill="#E4E4DE"/>
<path fill-rule="evenodd" clip-rule="evenodd" d="M177.439 79.616L183.436 84.1232C183.436 84.1232 182.936 85.7006 182.024 85.8196C181.112 85.9375 176.283 84.5949 176.283 84.5949L177.439 79.616Z" fill="#EA8E6C"/>
<path fill-rule="evenodd" clip-rule="evenodd" d="M178.164 76.0309L184.438 78.7795C184.438 78.7795 184.847 80.8263 182.494 80.5437L184.6 82.051C184.6 82.051 184.079 82.9642 181.451 83.0732C178.824 83.1811 176.283 79.5404 176.283 79.5404L178.164 76.0309Z" fill="#EA8E6C"/>
<path fill-rule="evenodd" clip-rule="evenodd" d="M171.937 83.0198C171.946 83.1054 172.699 82.9531 173.537 82.1811C173.961 81.8162 174.406 81.339 174.977 80.9697C175.549 80.5882 176.244 80.4102 176.963 80.715C179.874 82.1955 182.344 83.4647 182.414 83.2968C182.463 83.1689 180.224 81.7194 177.166 80.1733C176.749 80.0098 176.262 79.9363 175.818 80.0231C175.373 80.1043 174.998 80.3079 174.681 80.527C174.047 80.9753 173.628 81.5003 173.253 81.8841C172.53 82.6905 171.914 82.9442 171.937 83.0198Z" fill="#E2724E"/>
<path fill-rule="evenodd" clip-rule="evenodd" d="M173.163 98.684C173.256 98.7975 174.8 96.9521 175.084 94.1122C175.402 91.2757 174.28 89.1466 174.166 89.239C173.994 89.2924 174.814 91.3892 174.509 94.051C174.249 96.7174 173.008 98.595 173.163 98.684Z" fill="#E2724E"/>
<path fill-rule="evenodd" clip-rule="evenodd" d="M173.997 78.7973C174.07 78.8574 174.408 78.3891 175.211 78.1288C176.008 77.8429 177.206 77.9086 178.392 78.4948C179.581 79.0587 180.61 79.7818 181.456 80.1344C182.294 80.507 182.876 80.5582 182.889 80.4848C182.91 80.4025 182.394 80.2178 181.641 79.7684C180.877 79.3424 179.911 78.5793 178.634 77.9686C177.994 77.6738 177.328 77.4758 176.693 77.448C176.062 77.4191 175.493 77.547 175.06 77.7473C174.173 78.1622 173.936 78.7784 173.997 78.7973Z" fill="#E2724E"/>
<mask id="mask2" mask-type="alpha" maskUnits="userSpaceOnUse" x="141" y="118" width="72" height="377">
<path d="M212.479 118.17H141.809V494.933H212.479V118.17Z" fill="white"/>
</mask>
<g mask="url(#mask2)">
<path fill-rule="evenodd" clip-rule="evenodd" d="M174.468 118.17L141.809 139.161L150.464 163.943C150.464 163.943 172.812 157.038 172.393 156.314C171.974 155.589 174.468 118.17 174.468 118.17Z" fill="#E0565F"/>
<path fill-rule="evenodd" clip-rule="evenodd" d="M182.914 453.667L188.05 477.35C188.05 477.35 165.73 490.53 166.253 494.999L212.479 486.679L205.989 449.449L182.914 453.667Z" fill="#132529"/>
<path fill-rule="evenodd" clip-rule="evenodd" d="M212.479 486.68L211.678 482.952L167.657 492.324C167.657 492.324 165.76 493.591 166.253 494.999L212.479 486.68Z" fill="#334F55"/>
</g>
<path fill-rule="evenodd" clip-rule="evenodd" d="M235.488 456.273L236.251 480.496C236.251 480.496 211.913 489.407 211.62 493.898L258.587 494.103L258.944 456.312L235.488 456.273Z" fill="#132529"/>
<mask id="mask3" mask-type="alpha" maskUnits="userSpaceOnUse" x="211" y="491" width="48" height="4">
<path d="M258.587 494.103L211.62 493.898C211.62 493.889 211.621 493.879 211.622 493.869H211.616C211.617 493.879 211.618 493.888 211.62 493.898L258.587 494.103ZM211.653 493.29C211.699 493.29 211.743 493.29 211.789 493.29C212.02 492.801 212.476 492.271 213.104 491.716C212.631 491.989 211.859 492.535 211.653 493.29Z" fill="white"/>
</mask>
<g mask="url(#mask3)">
<path fill-rule="evenodd" clip-rule="evenodd" d="M258.587 494.103H211.616V491.716H258.587V494.103Z" fill="#7D9092"/>
</g>
<path fill-rule="evenodd" clip-rule="evenodd" d="M211.622 493.869C211.638 493.683 211.696 493.491 211.789 493.29C211.743 493.29 211.699 493.29 211.653 493.29C211.604 493.472 211.588 493.664 211.616 493.869H211.622Z" fill="#273F43"/>
<path fill-rule="evenodd" clip-rule="evenodd" d="M258.587 494.103L258.473 490.292L213.484 491.521C213.484 491.521 213.328 491.588 213.104 491.716C212.476 492.271 212.02 492.801 211.789 493.29C211.696 493.491 211.638 493.683 211.622 493.869C211.621 493.879 211.62 493.889 211.62 493.898L258.587 494.103Z" fill="#273F43"/>
<path fill-rule="evenodd" clip-rule="evenodd" d="M228.678 59.0962L223.892 114.664L196.092 112.442C195.919 109.192 196.151 96.6217 196.151 96.6217C196.151 96.6217 184.586 94.8208 184.442 83.2434C184.372 77.6215 185.176 66.0007 186.021 55.5334C186.957 43.9192 196.984 35.1861 208.603 35.8657C220.634 36.5687 229.713 47.075 228.678 59.0962Z" fill="#EA8E6C"/>
<path fill-rule="evenodd" clip-rule="evenodd" d="M196.132 96.4549C196.132 96.4549 203.44 97.05 211.209 92.1646C211.209 92.1646 207.646 100.497 196.106 99.4549L196.132 96.4549Z" fill="#E2724E"/>
<path fill-rule="evenodd" clip-rule="evenodd" d="M190.501 63.6458C190.471 64.519 191.183 65.2654 192.093 65.3144C193.002 65.3633 193.764 64.6959 193.797 63.8227C193.827 62.9506 193.113 62.2031 192.206 62.1541C191.296 62.1052 190.532 62.7726 190.501 63.6458Z" fill="#132529"/>
<path fill-rule="evenodd" clip-rule="evenodd" d="M188.492 61.3677C188.698 61.5835 189.949 60.6558 191.726 60.6613C193.501 60.6402 194.806 61.5557 194.998 61.3376C195.093 61.2409 194.883 60.8526 194.316 60.4377C193.758 60.0262 192.803 59.6257 191.697 59.629C190.59 59.6357 189.658 60.044 189.123 60.4611C188.577 60.8805 188.391 61.2709 188.492 61.3677Z" fill="#132529"/>
<path fill-rule="evenodd" clip-rule="evenodd" d="M207.564 63.6458C207.534 64.519 208.248 65.2654 209.158 65.3144C210.066 65.3633 210.829 64.6959 210.86 63.8238C210.89 62.9506 210.178 62.2031 209.269 62.1541C208.359 62.1052 207.597 62.7726 207.564 63.6458Z" fill="#132529"/>
<path fill-rule="evenodd" clip-rule="evenodd" d="M205.961 61.6992C206.167 61.915 207.419 60.9884 209.194 60.9929C210.97 60.9728 212.276 61.8872 212.467 61.6692C212.561 61.5735 212.356 61.1842 211.784 60.7704C211.226 60.3577 210.273 59.9573 209.167 59.9617C208.059 59.9684 207.128 60.3755 206.592 60.7938C206.048 61.2131 205.861 61.6036 205.961 61.6992Z" fill="#132529"/>
<path fill-rule="evenodd" clip-rule="evenodd" d="M199.511 74.894C199.52 74.7928 198.416 74.6015 196.626 74.3723C196.171 74.3256 195.742 74.2355 195.666 73.9252C195.559 73.597 195.749 73.1076 195.969 72.5781C196.396 71.4791 196.841 70.3278 197.311 69.1198C199.174 64.1942 200.522 60.1441 200.324 60.0707C200.126 59.9973 198.453 63.9295 196.59 68.855C196.141 70.0697 195.712 71.2277 195.304 72.3356C195.133 72.8517 194.837 73.4379 195.069 74.1187C195.192 74.458 195.523 74.7049 195.816 74.7828C196.107 74.8718 196.361 74.8762 196.586 74.8907C198.388 74.9875 199.504 74.9952 199.511 74.894Z" fill="#132529"/>
<path fill-rule="evenodd" clip-rule="evenodd" d="M204.741 76.1243C204.453 76.1076 204.45 78.0398 202.798 79.4102C201.15 80.7851 199.093 80.5682 199.079 80.8385C199.051 80.9597 199.537 81.2133 200.404 81.2367C201.256 81.2656 202.499 80.992 203.509 80.1533C204.517 79.3134 204.95 78.1911 205.014 77.4002C205.089 76.5915 204.873 76.1143 204.741 76.1243Z" fill="#132529"/>
<path fill-rule="evenodd" clip-rule="evenodd" d="M205.502 54.727C205.678 55.2108 207.452 54.9817 209.538 55.2331C211.628 55.4433 213.309 56.054 213.586 55.6202C213.709 55.4122 213.416 54.9572 212.736 54.4889C212.062 54.0217 210.987 53.5768 209.734 53.4377C208.483 53.3009 207.337 53.5 206.579 53.8093C205.812 54.1174 205.427 54.4978 205.502 54.727Z" fill="#132529"/>
<path fill-rule="evenodd" clip-rule="evenodd" d="M189.146 56.2186C189.458 56.6224 190.682 56.203 192.156 56.1841C193.626 56.1118 194.873 56.4544 195.16 56.0317C195.287 55.827 195.09 55.4221 194.546 55.0395C194.009 54.659 193.111 54.3476 192.099 54.3776C191.088 54.4099 190.211 54.7758 189.699 55.1896C189.179 55.6057 189.008 56.0217 189.146 56.2186Z" fill="#132529"/>
<path fill-rule="evenodd" clip-rule="evenodd" d="M216.122 46.4009L216.186 46.4509C218.027 47.907 219.244 50.0138 219.567 52.3409L219.599 52.5745C220.052 55.8759 219.969 59.2353 220.454 62.5334C220.938 65.8316 222.08 69.1864 224.516 71.4579C225.518 72.3934 227.289 73.0363 228.112 71.9406C228.431 71.5168 228.483 70.9573 228.524 70.4278C229.141 62.4544 231.317 55.3798 231.301 47.0427C231.298 44.7735 230.231 42.6433 228.388 41.3218C226.643 40.0704 224.514 38.7734 222.578 39.6911C220.634 40.6121 218.129 44.2418 216.628 45.7813" fill="#132529"/>
<path fill-rule="evenodd" clip-rule="evenodd" d="M224.779 64.3355C224.977 64.2498 232.726 61.9828 232.473 69.8973C232.22 77.8128 224.334 75.9262 224.328 75.6993C224.321 75.4713 224.779 64.3355 224.779 64.3355Z" fill="#EA8E6C"/>
<path fill-rule="evenodd" clip-rule="evenodd" d="M226.839 72.7772C226.874 72.7527 226.974 72.8784 227.203 72.993C227.427 73.1031 227.814 73.1876 228.232 73.0464C229.077 72.766 229.823 71.4612 229.907 70.0363C229.95 69.3166 229.821 68.6258 229.584 68.0496C229.361 67.4623 229 67.0463 228.582 66.9584C228.167 66.8483 227.861 67.0897 227.757 67.3099C227.644 67.5279 227.69 67.6881 227.648 67.6992C227.624 67.7182 227.481 67.5613 227.556 67.2365C227.593 67.0808 227.692 66.8972 227.882 66.7504C228.077 66.6025 228.359 66.5324 228.65 66.5735C229.259 66.6358 229.79 67.2143 230.05 67.8472C230.343 68.4835 230.506 69.2599 230.457 70.0686C230.356 71.6615 229.492 73.1287 228.339 73.4223C227.779 73.5502 227.32 73.3667 227.087 73.172C226.848 72.9696 226.812 72.7905 226.839 72.7772Z" fill="#E2724E"/>
<path fill-rule="evenodd" clip-rule="evenodd" d="M222.844 40.917C224.791 37.7501 219.458 33.2028 215.556 31.9714C211.653 30.74 206.513 32.6444 202.63 33.9336C200.18 34.7468 197.739 35.8825 195.159 35.7746C193.43 35.7045 191.779 35.0749 190.148 34.4965C188.514 33.9192 186.816 33.3797 185.089 33.4976C183.362 33.6155 181.584 34.5343 180.929 36.1394C180.273 37.7435 181.212 39.9404 182.927 40.1795C180.738 38.976 177.572 40.5566 177.218 43.0316C176.862 45.5055 179.452 47.916 181.891 47.3832C180.767 46.53 179.042 47.9382 179.181 49.3443C179.32 50.7492 180.593 51.7714 181.886 52.3398C185.182 53.7893 189.027 53.3265 192.439 52.1774C195.851 51.0273 199.017 49.2364 202.4 48.0016C205.783 46.7669 211.449 44.5511 214.846 45.7502C217.346 46.6323 219.086 49.6479 220.498 48.9827C221.862 48.3387 222.728 46.9082 223 45.4232C223.273 43.9371 223.059 42.4109 222.844 40.917Z" fill="#132529"/>
<path fill-rule="evenodd" clip-rule="evenodd" d="M181.971 39.9603C182.038 39.9214 182.379 40.5465 183.229 41.4698C184.079 42.3775 185.512 43.5722 187.621 44.3019C189.692 45.0249 192.508 45.2585 195.161 43.996C197.851 42.7913 200.151 40.3775 202.8 38.1027C205.442 35.809 208.562 34.1116 211.687 33.8301C214.793 33.5331 217.663 34.6744 219.248 36.4508C220.842 38.2451 221.16 40.2907 221.04 41.5677C220.982 42.2206 220.818 42.7045 220.701 43.0227C220.558 43.3341 220.469 43.4865 220.444 43.4754C220.371 43.4509 220.701 42.8002 220.738 41.551C220.761 40.3352 220.366 38.4342 218.843 36.8279C217.339 35.2417 214.659 34.2328 211.758 34.5465C208.842 34.849 205.886 36.4609 203.304 38.7C200.706 40.9236 198.334 43.402 195.457 44.6534C192.59 45.9704 189.574 45.6501 187.432 44.8202C185.241 43.986 183.806 42.6678 182.999 41.67C182.6 41.1617 182.323 40.7434 182.176 40.4375C182.018 40.1361 181.949 39.9737 181.971 39.9603Z" fill="#334F55"/>
<path fill-rule="evenodd" clip-rule="evenodd" d="M226.792 63.9896C226.764 64.0174 226.451 63.7727 226.153 63.1442C225.851 62.5257 225.616 61.5057 225.759 60.2743C225.934 57.7248 228.187 54.9884 228.473 51.4644C228.648 49.7247 228.343 48.0272 227.599 46.7391C226.86 45.4555 225.702 44.619 224.66 44.1985C223.607 43.7602 222.651 43.7569 222.02 43.8392C221.386 43.9404 221.043 44.0884 221.014 44.0261C220.996 43.9938 221.294 43.7458 221.957 43.5422C222.612 43.3576 223.668 43.2686 224.851 43.6801C226.022 44.0761 227.339 44.936 228.218 46.3732C229.09 47.797 229.439 49.6702 229.251 51.5378C229.09 53.4155 228.407 55.1141 227.727 56.5268C227.049 57.9461 226.484 59.2165 226.307 60.3511C225.89 62.6715 226.908 63.9529 226.792 63.9896Z" fill="#334F55"/>
<path fill-rule="evenodd" clip-rule="evenodd" d="M180.382 473.981C180.382 473.981 156.307 355.745 156.288 353.378L199.294 330.613L215.948 469.373L180.382 473.981Z" fill="#132529"/>
<path fill-rule="evenodd" clip-rule="evenodd" d="M234.54 477.942L201.283 273.013V228.813L249.448 232.257C250.021 233.979 262.164 478.215 262.164 478.215L257.476 477.942H234.54Z" fill="#132529"/>
<path fill-rule="evenodd" clip-rule="evenodd" d="M175.141 225.687L156.288 353.378L198.436 343.144L215.618 229.838L175.141 225.687Z" fill="#132529"/>
<path fill-rule="evenodd" clip-rule="evenodd" d="M165.732 276.636L167.871 259.254L165.732 276.636Z" fill="#E0565F"/>
<path fill-rule="evenodd" clip-rule="evenodd" d="M167.871 280.686C167.871 280.686 160.548 274.387 159.817 269.631C159.084 264.876 168.611 188.407 168.611 188.407L173.464 125.2C173.464 126.316 173.336 117.236 174.801 116.69C179.288 115.015 188.379 111.966 188.379 111.966L193.596 107.274C193.596 107.274 184.223 147.404 182.396 158.38L167.871 280.686Z" fill="#E0565F"/>
<path fill-rule="evenodd" clip-rule="evenodd" d="M228.087 102.938L235.973 108.193L265.562 119.848L252.426 169.468L254.182 198.244L255.869 216.54C255.869 216.54 264.674 261.843 272.452 289.374C272.452 289.374 263.778 305.838 256.642 308.134L253.676 309.898L243.1 232.356L234.018 220.087C233.147 218.91 232.331 217.701 231.566 216.453C229.337 212.816 224.252 204.548 220.199 198.172C214.848 189.753 207.968 170.618 210.007 162.453C212.044 154.29 228.087 102.938 228.087 102.938Z" fill="#E0565F"/>
<path fill-rule="evenodd" clip-rule="evenodd" d="M248.189 274.001C241.278 268.412 235.487 261.442 231.258 253.619L248.189 274.001Z" fill="#132529"/>
<path fill-rule="evenodd" clip-rule="evenodd" d="M228.087 102.938L220.963 148.683C221.051 153.326 221.941 159.764 223.848 165.931L236.559 207.056C236.559 207.056 246.546 229.491 243.1 232.356C239.653 235.221 212.763 232.356 212.763 232.356L176.387 227.071C174.699 226.826 173.501 225.297 173.667 223.6L179.069 167.735C180.887 163.876 181.634 155.985 182.396 153.175L193.596 107.274L195.886 106.977L200.866 110.398L203.483 110.608L225.502 99.9476L228.087 102.938Z" fill="#E4E4DE"/>
<path fill-rule="evenodd" clip-rule="evenodd" d="M234.719 201.106C228.842 182.766 221.231 152.946 221.231 152.946C218.863 168.544 221.456 184.486 227.247 199.159C231.973 211.137 237.697 220.193 241.637 232.453L241.754 232.962C241.754 232.962 243.976 233.076 243.823 229.797C243.67 226.519 240.521 216.755 238.366 211.343C236.21 205.928 234.719 201.106 234.719 201.106Z" fill="#D4D5CF"/>
<path fill-rule="evenodd" clip-rule="evenodd" d="M199.6 114.302H204.54L206.024 121.071L201.699 126.316L197.342 125.88L195.923 121.02L197.091 118.306L199.6 114.302Z" fill="#E0565F"/>
<path fill-rule="evenodd" clip-rule="evenodd" d="M170.768 153.86C169.207 154.173 152.029 165.743 145.782 164.491C139.536 163.241 134.486 157.352 133.82 156.562C130.279 152.353 132.498 143.629 133.517 140.335C133.767 139.527 134.109 138.76 134.534 138.028L161.053 92.397L176.686 101.908L160.461 131.551L170.768 153.86Z" fill="#E0565F"/>
<path fill-rule="evenodd" clip-rule="evenodd" d="M298.69 208.999C300.851 203.591 300.352 197.478 297.727 192.279C294.127 185.15 288.424 173.63 287.223 169.853C285.44 164.24 268.826 121.133 265.562 119.848L251.079 168.658L267.856 204.04L248.189 241.132L264.618 258.813C264.618 258.813 295.633 215.521 298.182 210.164C298.364 209.781 298.533 209.392 298.69 208.999Z" fill="#E0565F"/>
<path fill-rule="evenodd" clip-rule="evenodd" d="M247.454 270.069C243.867 266.688 241.192 263.325 239.244 260.364C239.29 260.245 239.298 260.144 239.256 260.067C239.193 259.958 239.07 259.899 238.92 259.864C237.84 258.18 236.989 256.648 236.34 255.338C239.088 253.55 242.676 250.844 238.773 250.287C233.969 249.603 230.534 247.265 230.046 245.986C229.556 244.707 231.157 243.558 232.422 244.375C233.446 245.036 235.492 245.607 237.047 245.974C238.329 246.275 239.653 246.368 240.962 246.222C242.488 246.053 248.742 243.336 249.833 243.136L261.531 255.466C261.531 255.466 252.554 264.995 247.454 270.069Z" fill="#EA8E6C"/>
<path fill-rule="evenodd" clip-rule="evenodd" d="M170.879 155.217C170.918 155.225 171.061 154.736 171.287 153.844C171.516 152.952 171.806 151.651 172.128 150.036C172.773 146.808 173.489 142.308 173.939 137.3C174.382 132.29 174.473 127.732 174.408 124.441C174.378 122.794 174.322 121.463 174.254 120.544C174.19 119.625 174.136 119.119 174.097 119.12C174.057 119.123 174.036 119.632 174.03 120.551C174.021 121.586 174.011 122.889 173.999 124.442C173.96 127.724 173.804 132.258 173.362 137.247C172.916 142.235 172.267 146.725 171.724 149.963C171.462 151.492 171.241 152.777 171.067 153.797C170.909 154.703 170.84 155.209 170.879 155.217Z" fill="#132529"/>
<path fill-rule="evenodd" clip-rule="evenodd" d="M157.236 157.856C157.242 157.875 157.37 157.843 157.608 157.765C157.844 157.684 158.184 157.535 158.6 157.295C159.419 156.812 160.514 155.892 161.422 154.428C162.373 152.977 162.926 150.978 163.439 148.82C163.951 146.645 164.448 144.242 164.769 141.671C165.236 136.528 165.626 131.911 165.879 128.548C165.987 126.957 166.078 125.623 166.149 124.568C166.2 123.628 166.21 123.105 166.169 123.101C166.129 123.098 166.044 123.613 165.924 124.548C165.804 125.599 165.653 126.927 165.471 128.513C165.114 131.858 164.656 136.509 164.194 141.604C163.878 144.133 163.4 146.536 162.921 148.7C162.433 150.867 161.941 152.8 161.072 154.216C160.241 155.651 159.236 156.579 158.478 157.105C157.71 157.626 157.216 157.807 157.236 157.856Z" fill="#132529"/>
<path fill-rule="evenodd" clip-rule="evenodd" d="M166.193 123.489L166.292 123.425C166.272 123.347 166.252 123.269 166.231 123.192L166.193 123.297C166.194 123.351 166.194 123.414 166.193 123.489Z" fill="#A2A5A2"/>
<path fill-rule="evenodd" clip-rule="evenodd" d="M168.388 148.708C168.441 148.559 168.491 148.409 168.538 148.259C169.487 145.232 169.342 141.978 169.037 138.82C168.532 133.627 167.614 128.473 166.292 123.425L166.193 123.489C166.189 123.738 166.174 124.101 166.149 124.568C166.078 125.623 165.987 126.957 165.879 128.548C165.637 131.766 165.269 136.131 164.829 141.005L168.388 148.708Z" fill="#A93B44"/>
<path fill-rule="evenodd" clip-rule="evenodd" d="M162.287 154.888C165.198 154.118 167.367 151.559 168.388 148.708L164.829 141.005C164.809 141.226 164.789 141.448 164.769 141.671C164.448 144.242 163.951 146.645 163.439 148.82C163.226 149.72 163.004 150.592 162.751 151.408C162.599 152.568 162.443 153.728 162.287 154.888Z" fill="#A93B44"/>
<path fill-rule="evenodd" clip-rule="evenodd" d="M164.344 139.958C164.6 137.187 164.851 134.582 165.081 132.292C164.804 134.76 164.518 137.227 164.223 139.693L164.344 139.958Z" fill="#A93B44"/>
<path fill-rule="evenodd" clip-rule="evenodd" d="M163.383 146.514C163.694 144.958 163.981 143.31 164.194 141.604C164.244 141.049 164.294 140.501 164.344 139.958L164.223 139.693C163.951 141.968 163.671 144.242 163.383 146.514Z" fill="#A93B44"/>
<path fill-rule="evenodd" clip-rule="evenodd" d="M165.861 125.099C165.883 124.908 165.904 124.723 165.924 124.547C165.964 124.232 166.001 123.965 166.033 123.748L165.989 123.873C165.947 124.282 165.904 124.691 165.861 125.099Z" fill="#A93B44"/>
<path fill-rule="evenodd" clip-rule="evenodd" d="M162.751 151.408C163.004 150.592 163.226 149.72 163.439 148.82C163.951 146.645 164.448 144.242 164.769 141.671C164.789 141.448 164.809 141.226 164.829 141.005C165.269 136.131 165.637 131.766 165.879 128.548C165.987 126.957 166.078 125.623 166.149 124.568C166.174 124.101 166.189 123.738 166.193 123.489C166.194 123.414 166.194 123.351 166.193 123.297L166.033 123.748C166.001 123.965 165.964 124.232 165.924 124.548C165.904 124.723 165.883 124.908 165.861 125.099C165.61 127.498 165.35 129.895 165.081 132.292C164.851 134.582 164.6 137.187 164.344 139.958C164.294 140.501 164.244 141.049 164.194 141.604C163.981 143.31 163.694 144.958 163.383 146.514C163.177 148.146 162.966 149.777 162.751 151.408Z" fill="#051317"/>
<path fill-rule="evenodd" clip-rule="evenodd" d="M257.2 223.223C257.208 223.208 257.211 223.2 257.211 223.2C257.176 223.055 257.14 222.905 257.106 222.752C257.136 222.907 257.168 223.065 257.2 223.223ZM256.613 220.304C255.419 213.567 254.757 204 254.757 204L253.824 192.119L253.128 180.616H253.107L254.182 198.244L255.869 216.54C255.869 216.54 256.134 217.903 256.613 220.304Z" fill="#A2A5A2"/>
<path fill-rule="evenodd" clip-rule="evenodd" d="M253.107 180.616H253.128L252.723 173.931H252.699L253.107 180.616Z" fill="#8C8F8B"/>
<path fill-rule="evenodd" clip-rule="evenodd" d="M252.699 173.931H252.723L252.598 171.862L252.591 171.848L252.569 171.802L252.699 173.931Z" fill="#A0A29F"/>
<path fill-rule="evenodd" clip-rule="evenodd" d="M249.114 239.388L250.417 236.93C253.238 231.342 256.97 223.694 257.2 223.223C257.168 223.065 257.136 222.907 257.106 222.752C256.932 222.001 256.769 221.177 256.613 220.304C256.134 217.903 255.869 216.54 255.869 216.54L254.182 198.244L252.569 171.802L248.26 163.109C250.74 188.497 243.143 214.59 249.114 239.388Z" fill="#A93B44"/>
<path fill-rule="evenodd" clip-rule="evenodd" d="M249.131 239.456C249.522 238.696 249.958 237.84 250.417 236.93L249.114 239.388C249.12 239.41 249.126 239.433 249.131 239.456Z" fill="#A93B44"/>
<path fill-rule="evenodd" clip-rule="evenodd" d="M253.014 120.295C252.98 120.275 252.668 120.769 252.132 121.681C251.859 122.135 251.539 122.698 251.209 123.374C250.873 124.047 250.464 124.8 250.099 125.674C249.306 127.395 248.504 129.51 247.758 131.902C247.043 134.305 246.403 136.993 245.971 139.856C245.562 142.724 245.403 145.482 245.397 147.988C245.423 150.497 245.583 152.753 245.848 154.628C245.947 155.57 246.122 156.411 246.25 157.152C246.372 157.894 246.516 158.526 246.648 159.038C246.899 160.066 247.056 160.629 247.093 160.62C247.133 160.611 247.05 160.031 246.868 158.994C246.771 158.476 246.66 157.842 246.569 157.099C246.472 156.357 246.327 155.519 246.254 154.58C246.043 152.713 245.927 150.473 245.93 147.989C245.964 145.507 246.139 142.778 246.543 139.94C246.972 137.106 247.589 134.443 248.269 132.055C248.98 129.677 249.734 127.567 250.473 125.838C250.812 124.959 251.193 124.198 251.499 123.516C251.8 122.831 252.089 122.256 252.33 121.788C252.803 120.847 253.049 120.315 253.014 120.295Z" fill="#132529"/>
<path fill-rule="evenodd" clip-rule="evenodd" d="M268.054 204.33C268.136 204.38 268.871 203.154 270.319 201.379C271.766 199.626 273.971 197.278 276.888 195.423C278.349 194.521 279.969 194.081 281.418 194.33C282.867 194.553 284.071 195.23 285.009 195.856C286.882 197.152 287.913 198.163 287.984 198.081C288.01 198.052 287.779 197.779 287.321 197.321C286.861 196.868 286.187 196.212 285.243 195.521C284.311 194.838 283.076 194.079 281.5 193.803C279.922 193.497 278.111 193.978 276.591 194.924C273.562 196.855 271.391 199.277 269.997 201.126C269.301 202.057 268.804 202.854 268.484 203.418C268.166 203.981 268.022 204.313 268.054 204.33Z" fill="#132529"/>
<path fill-rule="evenodd" clip-rule="evenodd" d="M271.687 192.637C271.561 192.56 270.119 194.864 269.099 198.036C268.062 201.203 267.879 203.915 268.026 203.928C268.197 203.952 268.632 201.321 269.649 198.215C270.649 195.103 271.839 192.718 271.687 192.637Z" fill="#132529"/>
<path fill-rule="evenodd" clip-rule="evenodd" d="M257.556 222.516C257.521 222.499 257.226 223.005 256.719 223.939C256.174 224.968 255.466 226.311 254.608 227.934C252.843 231.326 250.427 236.055 247.751 241.359L247.659 241.541L247.8 241.689C248.152 242.056 248.528 242.449 248.907 242.845C253.272 247.398 257.246 251.496 260.143 254.442C261.547 255.85 262.709 257.019 263.597 257.91C264.421 258.719 264.89 259.155 264.919 259.127C264.948 259.1 264.533 258.612 263.759 257.754C262.906 256.83 261.788 255.619 260.439 254.158C257.617 251.14 253.689 246.996 249.324 242.444C248.946 242.048 248.569 241.657 248.217 241.29L248.267 241.619C250.932 236.31 253.289 231.552 254.961 228.112C255.753 226.455 256.409 225.087 256.911 224.037C257.359 223.073 257.589 222.534 257.556 222.516Z" fill="#132529"/>
<path fill-rule="evenodd" clip-rule="evenodd" d="M235.913 200.128C235.934 200.128 235.943 199.796 235.942 199.168C235.934 198.488 235.922 197.572 235.909 196.419C235.853 193.975 235.776 190.537 235.68 186.311C235.557 182.043 235.462 176.965 235.229 171.319C234.96 165.687 234.502 159.429 232.741 153.105C231.868 149.977 230.702 147.002 229.232 144.307L229.023 144.725C230.443 144.513 231.683 143.715 232.572 142.708C233.474 141.702 234.083 140.486 234.427 139.253C235.114 136.763 234.983 134.308 235.008 132.048C235.004 127.513 235.001 123.473 234.999 120.082C234.979 116.752 234.963 114.067 234.951 112.155C234.936 111.266 234.922 110.558 234.913 110.024C234.898 109.538 234.882 109.286 234.866 109.286C234.848 109.286 234.829 109.538 234.81 110.023C234.796 110.558 234.777 111.265 234.752 112.154C234.723 114.066 234.682 116.75 234.631 120.08C234.597 123.471 234.557 127.511 234.512 132.046C234.473 134.314 234.578 136.739 233.909 139.104C233.576 140.277 233.001 141.402 232.161 142.335C231.331 143.268 230.201 143.977 228.944 144.163L228.541 144.222L228.736 144.58C230.174 147.236 231.321 150.17 232.183 153.261C233.924 159.51 234.399 165.728 234.697 171.344C234.959 176.975 235.096 182.06 235.271 186.323C235.443 190.547 235.584 193.984 235.683 196.426C235.743 197.578 235.79 198.493 235.826 199.172C235.864 199.8 235.893 200.128 235.913 200.128Z" fill="#132529"/>
<path fill-rule="evenodd" clip-rule="evenodd" d="M188.294 112.672C188.277 112.666 188.189 112.876 188.036 113.283C187.871 113.743 187.657 114.337 187.392 115.074C186.833 116.702 186.058 118.961 185.101 121.748C184.139 124.606 182.998 127.999 181.722 131.791C181.112 133.712 180.356 135.668 179.786 137.842C179.532 138.931 179.387 140.122 179.644 141.305C179.89 142.465 180.518 143.652 181.626 144.332L181.537 143.927C180.597 145.32 179.609 146.792 178.686 148.345C177.321 150.652 176.176 153.058 175.573 155.548C174.966 158.043 174.967 160.528 175.07 162.84C175.341 167.468 175.648 171.614 175.887 175.105C176.14 178.545 176.348 181.35 176.496 183.368C176.578 184.296 176.642 185.041 176.691 185.612C176.743 186.124 176.779 186.392 176.799 186.391C176.819 186.39 176.821 186.12 176.809 185.604C176.786 185.032 176.758 184.285 176.722 183.354C176.618 181.333 176.472 178.524 176.294 175.08C176.097 171.569 175.862 167.418 175.603 162.817C175.516 160.522 175.529 158.092 176.124 155.682C176.716 153.271 177.834 150.919 179.183 148.641C180.096 147.106 181.076 145.641 182.011 144.247L182.18 143.998L181.923 143.843C180.99 143.276 180.423 142.241 180.196 141.186C179.959 140.121 180.082 139.016 180.321 137.967C180.858 135.872 181.614 133.862 182.206 131.951C183.436 128.144 184.536 124.738 185.463 121.867C186.351 119.059 187.071 116.781 187.59 115.138C187.816 114.388 187.997 113.784 188.138 113.316C188.257 112.899 188.311 112.678 188.294 112.672Z" fill="#132529"/>
<path fill-rule="evenodd" clip-rule="evenodd" d="M231.542 250.87C231.51 250.893 231.692 251.215 232.05 251.779C232.407 252.343 232.943 253.146 233.623 254.125C234.982 256.085 236.928 258.748 239.176 261.61C241.426 264.472 243.551 266.992 245.133 268.776C245.924 269.668 246.577 270.381 247.04 270.86C247.503 271.341 247.773 271.595 247.803 271.567C247.866 271.512 246.946 270.361 245.446 268.511C243.946 266.663 241.874 264.108 239.63 261.252C237.388 258.396 235.396 255.78 233.954 253.885C232.512 251.989 231.61 250.823 231.542 250.87Z" fill="#334F55"/>
<path fill-rule="evenodd" clip-rule="evenodd" d="M214.132 236.512C214.132 236.512 214.139 236.726 214.179 237.138C214.224 237.574 214.29 238.182 214.373 238.97C214.559 240.603 214.828 242.97 215.174 246.008C215.893 252.117 216.979 260.951 218.397 271.856C221.21 293.672 225.479 323.754 230.064 356.995C232.349 373.623 234.449 389.47 236.24 403.902C236.702 407.51 237.07 411.034 237.58 414.447C238.101 417.852 238.608 421.157 239.098 424.353C240.064 430.745 240.967 436.699 241.79 442.137C243.421 453.012 244.71 461.816 245.556 467.906C245.979 470.952 246.289 473.318 246.476 474.926C246.569 475.728 246.63 476.343 246.657 476.756C246.67 476.962 246.676 477.119 246.663 477.22C246.65 477.352 246.588 477.211 246.592 477.238L246.608 477.278L246.692 477.226C246.716 477.119 246.719 476.962 246.717 476.753C246.709 476.337 246.666 475.719 246.591 474.914C246.443 473.301 246.168 470.929 245.779 467.877C245.002 461.775 243.774 452.961 242.194 442.077C241.392 436.636 240.514 430.677 239.571 424.281C239.091 421.084 238.594 417.778 238.083 414.371C237.583 410.971 237.223 407.439 236.769 403.834C235.007 389.4 232.923 373.545 230.638 356.917C226.052 323.673 221.719 293.602 218.803 271.803C217.368 260.917 216.206 252.1 215.398 245.98C215.006 242.948 214.7 240.586 214.489 238.957C214.381 238.171 214.298 237.565 214.238 237.132C214.178 236.721 214.132 236.512 214.132 236.512Z" fill="#334F55"/>
<path fill-rule="evenodd" clip-rule="evenodd" d="M188.781 472.884C188.781 472.884 188.763 472.676 188.702 472.277C188.633 471.856 188.538 471.266 188.414 470.506C188.146 468.927 187.754 466.639 187.253 463.705C186.216 457.778 184.722 449.245 182.878 438.708C179.123 417.593 173.943 388.457 168.222 356.278C167.804 354.295 167.658 352.289 167.868 350.306C168.119 348.332 168.449 346.333 168.74 344.371C169.348 340.437 169.947 336.561 170.536 332.752C171.733 325.138 172.916 317.798 174.081 310.811C176.4 296.839 178.64 284.28 180.642 273.758C182.648 263.237 184.406 254.748 185.744 248.91C186.377 245.983 186.949 243.729 187.303 242.192C187.477 241.441 187.611 240.86 187.708 240.444C187.796 240.049 187.827 239.844 187.827 239.844C187.827 239.844 187.757 240.039 187.65 240.429C187.541 240.841 187.388 241.419 187.19 242.164C186.799 243.691 186.191 245.938 185.524 248.859C184.118 254.685 182.298 263.164 180.241 273.68C178.187 284.198 175.903 296.752 173.554 310.723C172.373 317.709 171.181 325.049 169.976 332.664C169.383 336.473 168.781 340.35 168.17 344.284C167.878 346.26 167.552 348.219 167.292 350.249C167.076 352.285 167.23 354.378 167.654 356.394C173.44 388.556 178.678 417.677 182.474 438.781C184.396 449.303 185.951 457.826 187.032 463.744C187.579 466.67 188.006 468.951 188.3 470.525C188.448 471.282 188.562 471.867 188.644 472.287C188.724 472.684 188.781 472.884 188.781 472.884Z" fill="#334F55"/>
<path fill-rule="evenodd" clip-rule="evenodd" d="M201.283 271.567C201.126 271.593 203.09 284.832 205.671 301.135C208.252 317.443 210.473 330.639 210.631 330.613C210.789 330.589 208.824 317.352 206.243 301.043C203.662 284.742 201.442 271.542 201.283 271.567Z" fill="#334F55"/>
<path fill-rule="evenodd" clip-rule="evenodd" d="M234.141 477.574C234.139 477.615 234.526 477.679 235.231 477.764C235.936 477.849 236.956 477.945 238.22 478.044C240.747 478.242 244.246 478.428 248.112 478.494C251.981 478.556 255.484 478.486 258.017 478.371C259.282 478.315 260.307 478.252 261.012 478.19C261.72 478.129 262.109 478.078 262.108 478.037C262.104 477.953 260.537 477.953 258.007 477.962C255.476 477.972 251.981 477.978 248.122 477.914C244.263 477.849 240.772 477.728 238.243 477.635C235.714 477.543 234.148 477.491 234.141 477.574Z" fill="#334F55"/>
<path fill-rule="evenodd" clip-rule="evenodd" d="M180.382 473.981C180.388 474.02 180.89 473.993 181.794 473.909C182.814 473.802 184.094 473.665 185.617 473.503C188.842 473.134 193.291 472.587 198.201 471.949C203.112 471.31 207.553 470.7 210.764 470.233C212.279 470.003 213.55 469.808 214.563 469.654C215.46 469.506 215.952 469.408 215.948 469.373C215.944 469.327 215.44 469.351 214.536 469.43C213.631 469.509 212.324 469.645 210.712 469.827C207.487 470.19 203.037 470.735 198.126 471.373C193.216 472.012 188.774 472.625 185.564 473.096C184.05 473.331 182.779 473.529 181.766 473.686C180.87 473.837 180.378 473.941 180.382 473.981Z" fill="#334F55"/>
<path fill-rule="evenodd" clip-rule="evenodd" d="M227.291 110.329C227.268 110.298 226.83 110.582 226.061 111.122C225.196 111.724 224.1 112.484 222.793 113.391C220.024 115.288 216.146 117.832 211.701 120.374C210.036 121.331 208.41 122.22 206.903 123.018L207.299 123.197C206.367 119.511 205.544 116.342 204.939 114.097C204.649 113.059 204.407 112.187 204.208 111.476C204.028 110.868 203.914 110.543 203.883 110.551C203.852 110.558 203.903 110.899 204.028 111.521C204.183 112.243 204.374 113.127 204.603 114.18C205.114 116.447 205.866 119.635 206.762 123.329L206.844 123.671L207.158 123.509C208.679 122.723 210.317 121.837 211.99 120.877C216.451 118.324 220.313 115.714 223.029 113.725C224.391 112.734 225.463 111.893 226.197 111.304C226.924 110.706 227.317 110.362 227.291 110.329Z" fill="#132529"/>
<path fill-rule="evenodd" clip-rule="evenodd" d="M190.573 118.519C190.51 118.624 192.548 119.995 195.483 121.84L195.73 121.995L195.864 121.731C196.338 120.812 196.841 119.831 197.368 118.808C198.518 116.539 199.53 114.468 200.237 112.958C200.942 111.447 201.344 110.495 201.272 110.458C201.201 110.423 200.671 111.309 199.871 112.773C199.071 114.236 198.001 116.276 196.852 118.545C196.338 119.575 195.844 120.561 195.383 121.485L195.764 121.378C192.787 119.604 190.638 118.414 190.573 118.519Z" fill="#132529"/>
<path fill-rule="evenodd" clip-rule="evenodd" d="M197.851 117.433C197.833 117.458 198.206 117.75 198.827 118.2C199.447 118.65 200.312 119.259 201.276 119.921C202.24 120.582 203.121 121.17 203.764 121.585C204.408 122.001 204.814 122.244 204.831 122.217C204.849 122.19 204.473 121.898 203.853 121.448C203.234 120.998 202.37 120.39 201.407 119.73C200.444 119.069 199.564 118.483 198.921 118.067C198.279 117.651 197.871 117.407 197.851 117.433Z" fill="#132529"/>
<path fill-rule="evenodd" clip-rule="evenodd" d="M201.189 119.733C201.232 119.78 202.199 118.863 203.349 117.687C204.5 116.509 205.392 115.52 205.344 115.477C205.296 115.435 204.329 116.352 203.183 117.524C202.039 118.697 201.146 119.685 201.189 119.733Z" fill="#132529"/>
<path fill-rule="evenodd" clip-rule="evenodd" d="M222.119 218.412C221.926 218.378 221.986 222.294 219.823 226.429C217.721 230.597 214.504 232.824 214.643 232.961C214.679 233.014 215.521 232.545 216.677 231.505C217.831 230.471 219.244 228.81 220.337 226.693C221.421 224.572 221.949 222.454 222.117 220.915C222.29 219.368 222.182 218.41 222.119 218.412Z" fill="#132529"/>
<path fill-rule="evenodd" clip-rule="evenodd" d="M215.658 233.065C215.669 233.209 218.176 232.959 220.95 231.644C223.733 230.346 225.526 228.575 225.422 228.475C225.311 228.338 223.403 229.863 220.704 231.119C218.016 232.396 215.624 232.894 215.658 233.065Z" fill="#132529"/>
<path fill-rule="evenodd" clip-rule="evenodd" d="M193.94 197.462C193.9 197.453 193.758 197.878 193.529 198.655C193.299 199.433 193.002 200.567 192.661 201.975C191.979 204.791 191.169 208.716 190.519 213.091C189.872 217.468 189.51 221.461 189.347 224.354C189.264 225.8 189.221 226.971 189.216 227.782C189.208 228.592 189.222 229.041 189.262 229.044C189.302 229.045 189.363 228.6 189.441 227.794C189.527 226.866 189.631 225.727 189.754 224.385C190.022 221.507 190.448 217.537 191.091 213.176C191.739 208.818 192.482 204.895 193.061 202.063C193.332 200.743 193.561 199.623 193.749 198.71C193.908 197.915 193.979 197.472 193.94 197.462Z" fill="#132529"/>
<path fill-rule="evenodd" clip-rule="evenodd" d="M201.342 127.454C202.786 139.009 203.856 164.189 204.254 175.827C204.588 185.575 204.552 195.33 204.517 205.083C204.506 208.225 204.472 211.475 203.18 214.338C200.858 219.485 195.178 222.069 189.961 224.218L201.342 127.454Z" fill="#D4D5CF"/>
<path fill-rule="evenodd" clip-rule="evenodd" d="M188.361 222.549L182.396 207.906L197.342 125.88L201.699 126.316C201.699 126.316 201.091 211.566 201.283 212.337L188.361 222.549Z" fill="#E0565F"/>
<path fill-rule="evenodd" clip-rule="evenodd" d="M197.503 125.887C197.493 125.948 198.416 126.14 199.572 126.225C200.73 126.311 201.67 126.253 201.67 126.192C201.67 126.126 200.737 126.078 199.59 125.994C198.442 125.91 197.512 125.821 197.503 125.887Z" fill="#132529"/>
</g>
<defs>
<clipPath id="clip0">
<rect width="460" height="495" transform="matrix(-1 0 0 1 460 0)" fill="white"/>
</clipPath>
</defs>
</svg>
