<svg width="111" height="111" viewBox="0 0 111 111" fill="none" xmlns="http://www.w3.org/2000/svg">
<rect width="110.234" height="110.234" rx="19.1071" fill="#F1F0EC"/>
<mask id="mask0" mask-type="alpha" maskUnits="userSpaceOnUse" x="23" y="23" width="64" height="64">
<rect x="23.5165" y="23.5167" width="62.9028" height="62.9028" fill="#C4C4C4"/>
</mask>
<g mask="url(#mask0)">
<mask id="mask1" mask-type="alpha" maskUnits="userSpaceOnUse" x="39" y="28" width="32" height="23">
<rect x="39.5282" y="28.6635" width="31.4514" height="21.7301" fill="#C4C4C4"/>
</mask>
<g mask="url(#mask1)">
<rect x="42.1015" y="31.8086" width="26.3048" height="37.1698" rx="13.1524" stroke="#2C3442" stroke-width="5.14659"/>
</g>
<rect x="31.2365" y="47.8202" width="47.463" height="30.8796" rx="5.43252" stroke="#2C3442" stroke-width="5.14659"/>
<path d="M57.4837 67.6186C57.4837 66.8895 57.3037 66.3173 56.9438 65.902C56.5838 65.4867 55.9516 65.0944 55.0472 64.7253C54.1427 64.3561 53.3074 63.9823 52.5414 63.6039C51.7754 63.2255 51.1155 62.7871 50.5617 62.2887C50.008 61.7903 49.5834 61.2135 49.2881 60.5582C48.9928 59.903 48.8451 59.1092 48.8451 58.1771C48.8451 56.6173 49.3712 55.3345 50.4233 54.3285C51.4754 53.3132 52.8783 52.7226 54.6319 52.5564V49.6354H56.833V52.6118C58.522 52.861 59.8464 53.5578 60.8062 54.7023C61.7753 55.8375 62.2599 57.2818 62.2599 59.0354H57.5806C57.5806 58.0756 57.396 57.3372 57.0269 56.8204C56.6577 56.3035 56.1316 56.0451 55.4486 56.0451C54.8395 56.0451 54.3642 56.2389 54.0227 56.6266C53.6905 57.005 53.5243 57.531 53.5243 58.2048C53.5243 58.8877 53.7182 59.4323 54.1058 59.8384C54.4934 60.2352 55.1164 60.6182 55.9747 60.9874C56.833 61.3473 57.6406 61.7257 58.3974 62.1226C59.1634 62.5102 59.8233 62.9532 60.3771 63.4516C60.9308 63.95 61.3646 64.5314 61.6784 65.196C61.9922 65.8605 62.1491 66.6588 62.1491 67.591C62.1491 69.1692 61.6461 70.4566 60.6401 71.4534C59.6434 72.4502 58.282 73.0316 56.5562 73.1977V75.9804H54.355V73.1839C52.343 72.9716 50.7971 72.284 49.7173 71.1212C48.6467 69.949 48.1114 68.4077 48.1114 66.4973H52.7768C52.7768 67.5494 53.0075 68.3524 53.469 68.9061C53.9397 69.4507 54.6042 69.7229 55.4625 69.7229C56.0901 69.7229 56.5838 69.5383 56.9438 69.1692C57.3037 68.7908 57.4837 68.2739 57.4837 67.6186Z" fill="#2C3442"/>
</g>
</svg>
