<svg width="334" height="280" viewBox="0 0 334 280" fill="none" xmlns="http://www.w3.org/2000/svg">
<rect width="334" height="280" fill="#F1F0EC"/>
<path d="M216.193 189.491H215.448V189.074H217.453V189.491H216.713V191.569H216.193V189.491ZM220.191 189.599H220.18L219.442 191.57H219.104L218.371 189.599H218.362V191.57H217.872V189.074H218.593L219.273 190.841L219.951 189.074H220.67V191.57H220.191V189.599H220.191Z" fill="#E76F00"/>
<path d="M149.525 138.465C149.525 138.465 144.344 141.479 153.212 142.498C163.957 143.724 169.448 143.548 181.288 141.307C181.288 141.307 184.401 143.259 188.749 144.95C162.206 156.326 128.677 144.291 149.525 138.465Z" fill="#6D6C6A"/>
<path d="M146.282 123.621C146.282 123.621 140.47 127.923 149.346 128.841C160.823 130.025 169.887 130.122 185.571 127.102C185.571 127.102 187.741 129.301 191.152 130.504C159.06 139.888 123.315 131.244 146.282 123.621Z" fill="#6D6C6A"/>
<path d="M173.625 98.4388C180.165 105.969 171.906 112.745 171.906 112.745C171.906 112.745 188.513 104.172 180.886 93.4365C173.763 83.4252 168.301 78.451 197.872 61.3006C197.872 61.3006 151.455 72.8936 173.625 98.4388Z" fill="#9D9C9A"/>
<path d="M208.73 149.446C208.73 149.446 212.564 152.606 204.507 155.05C189.186 159.691 140.74 161.093 127.281 155.235C122.444 153.13 131.516 150.209 134.37 149.596C137.346 148.951 139.047 149.071 139.047 149.071C133.667 145.281 104.271 156.513 124.115 159.73C178.233 168.507 222.767 155.778 208.73 149.446Z" fill="#6D6C6A"/>
<path d="M152.017 108.24C152.017 108.24 127.374 114.093 143.29 116.219C150.011 117.119 163.407 116.915 175.886 115.869C186.085 115.009 196.325 113.18 196.325 113.18C196.325 113.18 192.729 114.72 190.127 116.497C165.103 123.078 116.76 120.016 130.677 113.284C142.447 107.595 152.017 108.24 152.017 108.24Z" fill="#6D6C6A"/>
<path d="M196.223 132.95C221.662 119.732 209.9 107.028 201.691 108.74C199.678 109.159 198.781 109.522 198.781 109.522C198.781 109.522 199.528 108.351 200.955 107.845C217.196 102.135 229.687 124.685 195.712 133.617C195.712 133.617 196.106 133.265 196.223 132.95Z" fill="#6D6C6A"/>
<path d="M180.886 33.6087C180.886 33.6087 194.975 47.7017 167.524 69.3728C145.512 86.7567 162.505 96.6686 167.515 107.993C154.666 96.4004 145.237 86.195 151.563 76.6969C160.848 62.7544 186.571 55.9946 180.886 33.6087Z" fill="#9D9C9A"/>
<path d="M154.517 168.77C178.934 170.333 216.431 167.903 217.319 156.349C217.319 156.349 215.612 160.729 197.139 164.207C176.298 168.13 150.593 167.672 135.347 165.158C135.348 165.158 138.468 167.741 154.517 168.77Z" fill="#6D6C6A"/>
<path d="M150.515 212.918C148.211 214.916 145.778 216.037 143.595 216.037C140.479 216.037 138.795 214.169 138.795 211.172C138.795 207.93 140.599 205.559 147.836 205.559H150.514V212.918H150.515ZM156.871 220.089V197.891C156.871 192.22 153.636 188.478 145.838 188.478C141.286 188.478 137.298 189.602 134.057 191.036L134.992 194.965C137.544 194.029 140.848 193.157 144.09 193.157C148.582 193.157 150.515 194.965 150.515 198.705V201.51H148.273C137.358 201.51 132.435 205.747 132.435 212.106C132.435 217.594 135.679 220.714 141.788 220.714C145.715 220.714 148.647 219.093 151.387 216.72L151.884 220.09H156.871V220.089Z" fill="#9D9C9A"/>
<path d="M178.083 220.088H170.156L160.615 189.039H167.538L173.458 208.116L174.774 213.853C177.769 205.558 179.887 197.142 180.947 189.039H187.681C185.877 199.264 182.63 210.486 178.083 220.088Z" fill="#9D9C9A"/>
<path d="M208.494 212.918C206.186 214.916 203.749 216.037 201.566 216.037C198.455 216.037 196.767 214.169 196.767 211.172C196.767 207.93 198.575 205.559 205.811 205.559H208.494V212.918ZM214.849 220.089V197.891C214.849 192.22 211.607 188.478 203.818 188.478C199.262 188.478 195.273 189.602 192.033 191.036L192.967 194.965C195.52 194.029 198.83 193.157 202.07 193.157C206.558 193.157 208.494 194.965 208.494 198.705V201.51H206.248C195.331 201.51 190.409 205.747 190.409 212.106C190.409 217.594 193.651 220.714 199.759 220.714C203.688 220.714 206.618 219.093 209.363 216.72L209.863 220.09H214.849V220.089Z" fill="#9D9C9A"/>
<path d="M125.466 225.361C123.654 228.007 120.727 230.1 117.523 231.284L114.385 227.591C116.824 226.339 118.915 224.318 119.887 222.436C120.728 220.762 121.076 218.604 121.076 213.444V177.997H127.829V212.959C127.828 219.857 127.277 222.644 125.466 225.361Z" fill="#9D9C9A"/>
</svg>
