<svg width="334" height="280" viewBox="0 0 334 280" fill="none" xmlns="http://www.w3.org/2000/svg">
<rect width="334" height="280" fill="#F1F0EC"/>
<g clip-path="url(#clip0)">
<path d="M31.5137 186.894H40.4481V151.613L54.2797 182.37C55.9117 186.093 58.1457 187.41 62.5266 187.41C66.9082 187.41 69.0558 186.093 70.6885 182.37L84.5195 151.613V186.894H93.4546V151.671C93.4546 148.235 92.0794 146.573 89.2449 145.715C82.4581 143.596 77.9046 145.428 75.8426 150.01L62.269 180.365L49.125 150.01C47.1492 145.428 42.5101 143.596 35.7234 145.715C32.8882 146.573 31.5137 148.235 31.5137 151.671V186.894Z" fill="#6D6C6A"/>
<path d="M100.883 158.177H109.815V177.615C109.731 178.671 110.154 181.149 115.048 181.226C117.545 181.265 134.32 181.226 134.476 181.226V158.083H143.429C143.47 158.083 143.42 189.644 143.42 189.778C143.47 197.562 133.762 199.253 129.288 199.383H101.077V193.373C101.126 193.373 129.267 193.379 129.338 193.372C135.088 192.764 134.409 189.906 134.409 188.944V186.601H115.419C106.584 186.519 100.957 182.664 100.888 178.228C100.882 177.816 101.078 158.372 100.883 158.177Z" fill="#6D6C6A"/>
<path d="M150.315 186.894H176.001C179.008 186.894 181.929 186.264 184.249 185.176C188.114 183.401 190.004 180.996 190.004 177.845V171.316C190.004 168.738 187.857 166.333 183.647 164.73C181.413 163.87 178.664 163.412 176.001 163.412H165.176C161.569 163.412 159.85 162.324 159.421 159.919C159.335 159.632 159.335 159.402 159.335 159.116V155.051C159.335 154.821 159.335 154.591 159.421 154.305C159.85 152.473 160.796 151.957 163.974 151.671C164.232 151.671 164.575 151.613 164.833 151.613H190.348V145.658H165.262C161.654 145.658 159.764 145.886 158.046 146.401C152.72 148.063 150.4 150.697 150.4 155.28V160.491C150.4 164.501 154.954 167.937 162.599 168.738C163.459 168.795 164.318 168.852 165.176 168.852H174.454C174.799 168.852 175.142 168.852 175.4 168.91C178.235 169.14 179.437 169.655 180.297 170.686C180.812 171.201 180.984 171.717 180.984 172.289V177.501C180.984 178.131 180.554 178.934 179.696 179.62C178.922 180.308 177.634 180.766 175.915 180.881C175.572 180.881 175.314 180.938 174.971 180.938H150.315V186.894Z" fill="#BDBDBD"/>
<path d="M245.741 176.528C245.741 182.656 250.294 186.093 259.486 186.78C260.345 186.837 261.205 186.894 262.063 186.894H285.345V180.938H261.891C256.651 180.938 254.675 179.62 254.675 176.471V145.658H245.741V176.528Z" fill="#BDBDBD"/>
<path d="M195.707 176.841V155.606C195.707 150.211 199.495 146.939 206.984 145.906C207.759 145.792 208.62 145.734 209.394 145.734H226.354C227.214 145.734 227.99 145.792 228.85 145.906C236.34 146.939 240.128 150.211 240.128 155.606V176.841C240.128 181.217 238.519 183.56 234.811 185.086L243.612 193.03H233.238L226.118 186.603L218.95 187.057H209.394C207.759 187.057 206.038 186.827 204.143 186.311C198.462 184.761 195.707 181.777 195.707 176.841ZM205.35 176.324C205.35 176.612 205.436 176.898 205.522 177.243C206.038 179.71 208.363 181.088 211.892 181.088H220.009L212.553 174.357H222.927L229.43 180.227C230.628 179.589 231.417 178.612 231.693 177.357C231.778 177.071 231.778 176.783 231.778 176.497V156.122C231.778 155.893 231.778 155.606 231.693 155.318C231.176 153.023 228.851 151.703 225.408 151.703H211.892C207.933 151.703 205.35 153.425 205.35 156.122V176.324Z" fill="#BDBDBD"/>
<path d="M293.205 135.776C287.713 135.628 283.518 136.138 279.932 137.651C278.912 138.081 277.287 138.092 277.121 139.369C277.681 139.956 277.768 140.833 278.213 141.555C279.07 142.941 280.515 144.798 281.805 145.772C283.215 146.836 284.667 147.974 286.178 148.895C288.866 150.534 291.867 151.47 294.455 153.112C295.98 154.08 297.495 155.299 298.983 156.391C299.719 156.931 300.213 157.771 301.169 158.109C301.169 158.057 301.169 158.005 301.169 157.953C300.667 157.313 300.538 156.434 300.076 155.766C299.4 155.09 298.723 154.413 298.046 153.736C296.061 151.101 293.541 148.787 290.863 146.865C288.727 145.332 283.946 143.26 283.055 140.775C283.002 140.722 282.951 140.67 282.898 140.618C284.413 140.448 286.186 139.899 287.584 139.525C289.932 138.895 292.03 139.058 294.455 138.432C295.548 138.12 296.641 137.807 297.735 137.495C297.735 137.286 297.735 137.079 297.735 136.87C296.509 135.612 295.635 133.948 294.298 132.81C290.802 129.832 286.985 126.857 283.055 124.377C280.875 123.001 278.181 122.107 275.871 120.941C275.094 120.549 273.729 120.345 273.216 119.691C272.002 118.144 271.341 116.183 270.406 114.382C268.445 110.607 266.52 106.484 264.783 102.513C263.599 99.8046 262.825 97.1337 261.348 94.7041C254.257 83.0459 246.624 76.0091 234.8 69.0926C232.285 67.6217 229.255 67.0408 226.054 66.2819C224.337 66.1779 222.619 66.0733 220.901 65.9693C219.853 65.5311 218.762 64.2483 217.778 63.6267C213.861 61.1522 203.814 55.7698 200.913 62.846C199.081 67.3125 203.651 71.671 205.285 73.9342C206.432 75.522 207.901 77.3021 208.72 79.0876C209.259 80.261 209.353 81.4377 209.814 82.6797C210.949 85.7385 211.937 89.0663 213.405 91.8934C214.148 93.3236 214.966 94.8305 215.904 96.1098C216.48 96.8946 217.466 97.2404 217.621 98.4525C216.657 99.8018 216.602 101.896 216.06 103.606C213.62 111.302 214.54 120.867 218.09 126.563C219.18 128.311 221.746 132.061 225.274 130.623C228.36 129.366 227.671 125.471 228.553 122.034C228.753 121.255 228.631 120.682 229.022 120.16C229.022 120.212 229.022 120.264 229.022 120.316C229.959 122.19 230.896 124.064 231.833 125.938C233.913 129.288 237.606 132.79 240.734 135.152C242.357 136.378 243.634 138.496 245.732 139.213C245.732 139.16 245.732 139.109 245.732 139.056C245.679 139.056 245.627 139.056 245.575 139.056C245.169 138.422 244.533 138.16 244.014 137.651C242.791 136.453 241.433 134.963 240.422 133.591C237.576 129.727 235.061 125.498 232.77 121.097C231.676 118.996 230.725 116.677 229.802 114.538C229.447 113.713 229.451 112.466 228.71 112.039C227.7 113.606 226.212 114.873 225.43 116.724C224.181 119.682 224.019 123.29 223.557 127.031C223.283 127.129 223.404 127.062 223.244 127.187C221.069 126.662 220.304 124.423 219.496 122.503C217.452 117.645 217.072 109.823 218.871 104.231C219.336 102.784 221.44 98.2276 220.589 96.8912C220.182 95.5575 218.841 94.7863 218.09 93.7672C217.162 92.5075 216.234 90.8491 215.591 89.3944C213.918 85.6067 213.137 81.3548 211.375 77.5263C210.533 75.6959 209.109 73.8438 207.94 72.2166C206.645 70.4141 205.195 69.0865 204.192 66.9063C203.835 66.1317 203.35 64.8917 203.879 64.0955C204.048 63.558 204.285 63.3339 204.817 63.1585C205.722 62.4601 208.245 63.3909 209.189 63.7829C211.693 64.8231 213.783 65.8137 215.904 67.2188C216.923 67.8941 217.953 69.2 219.183 69.5615C219.652 69.5615 220.12 69.5615 220.589 69.5615C222.787 70.0669 225.25 69.7184 227.304 70.3421C230.934 71.4455 234.187 73.1617 237.142 75.0274C246.144 80.7108 253.503 88.8013 258.537 98.4525C259.347 100.006 259.698 101.49 260.411 103.138C261.85 106.462 263.663 109.882 265.095 113.132C266.524 116.375 267.917 119.648 269.937 122.346C270.999 123.765 275.1 124.526 276.964 125.313C278.271 125.866 280.412 126.441 281.649 127.187C284.013 128.613 286.304 130.311 288.521 131.873C289.629 132.653 293.036 134.366 293.205 135.776Z" fill="#6D6C6A"/>
<path fill-rule="evenodd" clip-rule="evenodd" d="M223.4 76.2766C222.255 76.2555 221.445 76.4016 220.589 76.5885C220.589 76.6407 220.589 76.693 220.589 76.7447C220.641 76.7447 220.693 76.7447 220.745 76.7447C221.291 77.8671 222.256 78.5893 222.931 79.5562C223.452 80.6494 223.972 81.7426 224.493 82.8351C224.545 82.7834 224.597 82.7311 224.649 82.6794C225.616 81.998 226.059 80.9075 226.054 79.2436C225.667 78.8359 225.61 78.3244 225.274 77.8378C224.827 77.1897 223.963 76.8215 223.4 76.2766Z" fill="#00618A"/>
<path fill-rule="evenodd" clip-rule="evenodd" d="M289.539 180.769C289.539 184.702 292.647 187.353 296.123 187.353C299.6 187.353 302.708 184.702 302.708 180.769C302.708 176.836 299.6 174.185 296.123 174.185C292.647 174.185 289.539 176.836 289.539 180.769ZM301.233 180.769C301.233 183.753 298.951 185.984 296.123 185.984C293.262 185.984 291.014 183.753 291.014 180.769C291.014 177.784 293.262 175.554 296.123 175.554C298.951 175.554 301.233 177.784 301.233 180.769ZM297.897 184.526H299.372L297.213 181.226C298.371 181.103 299.248 180.541 299.248 179.171C299.248 177.644 298.283 177.012 296.422 177.012H293.49V184.526H294.754V181.278H295.931L297.897 184.526ZM294.754 180.225V178.065H296.211C296.966 178.065 297.879 178.206 297.879 179.084C297.879 180.136 297.054 180.225 296.106 180.225H294.754Z" fill="#BDBDBD"/>
</g>
<defs>
<clipPath id="clip0">
<rect x="31" y="59" width="272.03" height="140.537" fill="white"/>
</clipPath>
</defs>
</svg>
