<svg width="111" height="111" viewBox="0 0 111 111" fill="none" xmlns="http://www.w3.org/2000/svg">
<rect width="110.234" height="110.234" rx="19.1071" fill="#F1F0EC"/>
<g clip-path="url(#clip0)">
<path fill-rule="evenodd" clip-rule="evenodd" d="M24.2841 37.3884C25.3077 36.3648 26.9672 36.3648 27.9907 37.3884L45.7946 55.1922L57.046 43.9408C58.0696 42.9172 59.7291 42.9172 60.7526 43.9408L85.6516 68.8398C86.6752 69.8633 86.6752 71.5228 85.6516 72.5464C84.6281 73.5699 82.9686 73.5699 81.945 72.5464L58.8993 49.5006L47.6479 60.7521C46.6243 61.7756 44.9648 61.7756 43.9413 60.7521L24.2841 41.095C23.2606 40.0714 23.2606 38.4119 24.2841 37.3884Z" fill="#2C3442"/>
<path fill-rule="evenodd" clip-rule="evenodd" d="M83.7983 52.3464C85.2458 52.3464 86.4193 53.5199 86.4193 54.9674V70.6931C86.4193 72.1406 85.2458 73.314 83.7983 73.314H68.0726C66.6251 73.314 65.4517 72.1406 65.4517 70.6931C65.4517 69.2456 66.6251 68.0721 68.0726 68.0721H81.1774V54.9674C81.1774 53.5199 82.3508 52.3464 83.7983 52.3464Z" fill="#2C3442"/>
</g>
<defs>
<clipPath id="clip0">
<path d="M23.5165 23.5164H86.4193V86.4192H23.5165V23.5164Z" fill="white"/>
</clipPath>
</defs>
</svg>
