<svg width="111" height="111" viewBox="0 0 111 111" fill="none" xmlns="http://www.w3.org/2000/svg">
<rect width="110.234" height="110.234" rx="19.1071" fill="#F1F0EC"/>
<g clip-path="url(#clip0)">
<path d="M75.9355 54.9675C75.9355 48.9393 73.3145 43.6974 69.3831 39.766L68.5968 30.5927C68.0726 26.6613 64.9275 23.5161 60.734 23.5161H49.2018C45.2704 23.5161 41.8631 26.6613 41.339 30.5927L40.5527 39.766C36.6212 43.4353 34.0003 48.9393 34.0003 54.9675C34.0003 60.9957 36.6212 66.4997 40.5527 70.169L41.339 79.3424C41.8631 83.2738 45.2704 86.4189 49.2018 86.4189H60.4719C64.6654 86.4189 67.8105 83.2738 68.3347 79.3424L69.121 70.4311C73.3145 66.4997 75.9355 60.9957 75.9355 54.9675ZM46.5809 31.1169C46.5809 29.8064 47.8913 28.758 49.2018 28.758H60.734C62.0445 28.758 63.0928 29.8064 63.3549 31.1169L63.8791 35.8346C60.9961 34.7862 58.113 33.9999 54.9679 33.9999C51.8228 33.9999 48.9397 34.7862 46.3188 35.8346L46.5809 31.1169ZM39.2422 54.9675C39.2422 46.3184 46.3188 39.2418 54.9679 39.2418C63.617 39.2418 70.6936 46.3184 70.6936 54.9675C70.6936 59.6852 68.5968 64.1408 65.1896 67.0239C62.5686 69.3827 58.8993 70.6932 54.9679 70.6932C46.3188 70.6932 39.2422 63.6167 39.2422 54.9675ZM63.3549 78.8182C63.3549 80.1286 62.0445 81.177 60.734 81.177H49.2018C47.8913 81.177 46.8429 80.1286 46.5809 78.8182L46.0567 74.1005C48.6776 75.4109 51.5607 75.9351 54.7058 75.9351C57.8509 75.9351 60.734 75.1488 63.3549 74.1005V78.8182Z" fill="#2C3442"/>
<path d="M57.0647 60.7336C57.5888 61.2578 58.3751 61.5199 58.8993 61.5199C59.4235 61.5199 60.2098 61.2578 60.734 60.7336C61.7824 59.6852 61.7824 58.1127 60.734 57.0643L57.5888 53.9191V47.1047C57.5888 45.5321 56.5405 44.4837 54.9679 44.4837C53.3953 44.4837 52.3469 45.5321 52.3469 47.1047V54.9675C52.3469 55.7538 52.609 56.278 53.1332 56.8022L57.0647 60.7336Z" fill="#2C3442"/>
</g>
<defs>
<clipPath id="clip0">
<path d="M23.5165 23.5164H86.4193V86.4192H23.5165V23.5164Z" fill="white"/>
</clipPath>
</defs>
</svg>
