<svg width="334" height="280" viewBox="0 0 334 280" fill="none" xmlns="http://www.w3.org/2000/svg">
<rect width="334" height="280" fill="#F1F0EC"/>
<g clip-path="url(#clip0)">
<path d="M148.515 158.022H166.502L156.991 142.721L139.535 170.387H131.591L152.823 137.154C153.746 135.811 155.284 135 156.991 135C158.641 135 160.18 135.783 161.075 137.098L182.391 170.387H174.446L170.698 164.205H152.487L148.515 158.022ZM231.037 164.205V135.336H224.295V167.03C224.295 167.897 224.631 168.736 225.274 169.38C225.918 170.023 226.785 170.387 227.736 170.387H258.479L262.451 164.205H231.037ZM119.506 159.029C126.052 159.029 131.367 153.742 131.367 147.197C131.367 140.651 126.052 135.336 119.506 135.336H90.0132V170.387H96.7522V141.518H119.058C122.192 141.518 124.709 144.063 124.709 147.197C124.709 150.33 122.192 152.875 119.058 152.875L100.053 152.847L120.177 170.387H129.968L116.429 159.029H119.506ZM48.5285 170.387C38.8523 170.387 31 162.554 31 152.875C31 143.196 38.8523 135.336 48.5285 135.336H68.9015C78.5804 135.336 86.4271 143.196 86.4271 152.875C86.4271 162.554 78.5804 170.387 68.9015 170.387H48.5285ZM68.4483 164.205C74.7174 164.205 79.7946 159.141 79.7946 152.875C79.7946 146.609 74.7174 141.518 68.4483 141.518H48.9787C42.7126 141.518 37.6325 146.609 37.6325 152.875C37.6325 159.141 42.7126 164.205 48.9787 164.205H68.4483ZM196.461 170.387C186.783 170.387 178.922 162.554 178.922 152.875C178.922 143.196 186.783 135.336 196.461 135.336H220.659L216.714 141.518H196.909C190.643 141.518 185.552 146.609 185.552 152.875C185.552 159.141 190.643 164.205 196.909 164.205H221.218L217.246 170.387H196.461ZM278.9 164.205C273.725 164.205 269.333 160.736 267.99 155.952H296.803L300.775 149.77H267.99C269.333 145.015 273.725 141.518 278.9 141.518H298.677L302.678 135.336H278.452C268.773 135.336 260.913 143.196 260.913 152.875C260.913 162.554 268.773 170.387 278.452 170.387H299.237L303.209 164.205H278.9Z" fill="#6D6C6A"/>
</g>
<defs>
<clipPath id="clip0">
<rect x="31" y="135" width="272.209" height="35.6211" fill="white"/>
</clipPath>
</defs>
</svg>
